SplineFontDB: 3.2
FontName: rounded_air
FullName: rounded_air
FamilyName: rounded_air
Weight: Book
Copyright: Copyright (c) 2024, S.Y
Version: 001.000
ItalicAngle: 0
UnderlinePosition: -100
UnderlineWidth: 50
Ascent: 800
Descent: 200
InvalidEm: 0
sfntRevision: 0x00010000
LayerCount: 2
Layer: 0 1 "+gMyXYgAA" 1
Layer: 1 1 "+Uk2XYgAA" 0
XUID: [1021 765 1012425290 5142]
StyleMap: 0x0040
FSType: 0
OS2Version: 4
OS2_WeightWidthSlopeOnly: 0
OS2_UseTypoMetrics: 1
CreationTime: 1725714478
ModificationTime: 1725762062
PfmFamily: 17
TTFWeight: 400
TTFWidth: 5
LineGap: 90
VLineGap: 0
Panose: 2 0 5 3 0 0 0 0 0 0
OS2TypoAscent: 800
OS2TypoAOffset: 0
OS2TypoDescent: -200
OS2TypoDOffset: 0
OS2TypoLinegap: 90
OS2WinAscent: 800
OS2WinAOffset: 0
OS2WinDescent: 201
OS2WinDOffset: 0
HheadAscent: 800
HheadAOffset: 0
HheadDescent: -201
HheadDOffset: 0
OS2SubXSize: 650
OS2SubYSize: 700
OS2SubXOff: 0
OS2SubYOff: 140
OS2SupXSize: 650
OS2SupYSize: 700
OS2SupXOff: 0
OS2SupYOff: 480
OS2StrikeYSize: 49
OS2StrikeYPos: 258
OS2XHeight: 558
OS2Vendor: 'PfEd'
OS2CodePages: 00000001.00000000
OS2UnicodeRanges: 00000001.00000000.00000000.00000000
MarkAttachClasses: 1
DEI: 91125
ShortTable: maxp 16
  1
  0
  55
  123
  4
  0
  0
  2
  0
  1
  1
  0
  64
  0
  0
  0
EndShort
LangName: 1033 "" "" "Regular" "FontForge 2.0 : rounded_air : 7-9-2024" "" "Version 001.000"
GaspTable: 1 65535 2 0
Encoding: UnicodeBmp
UnicodeInterp: none
NameList: AGL For New Fonts
DisplaySize: -48
AntiAlias: 1
FitToEm: 0
WinInfo: 56 28 9
BeginChars: 65539 55

StartChar: .notdef
Encoding: 65536 -1 0
Width: 500
GlyphClass: 1
Flags: W
LayerCount: 2
Fore
SplineSet
50 0 m 1,0,-1
 50 533 l 1,1,-1
 450 533 l 1,2,-1
 450 0 l 1,3,-1
 50 0 l 1,0,-1
100 50 m 1,4,-1
 400 50 l 1,5,-1
 400 483 l 1,6,-1
 100 483 l 1,7,-1
 100 50 l 1,4,-1
EndSplineSet
EndChar

StartChar: exclam
Encoding: 33 33 4
Width: 500
GlyphClass: 1
Flags: W
LayerCount: 2
Fore
SplineSet
172 715 m 0,0,1
 177 715 177 715 181 714 c 0,2,3
 191 711 191 711 197 703 c 0,4,5
 205 692 205 692 202 679 c 2,6,-1
 101 284 l 2,7,8
 99 275 99 275 91 269 c 0,9,10
 80 261 80 261 67 264 c 0,11,12
 57 267 57 267 51 275 c 0,13,14
 43 286 43 286 47 299 c 2,15,-1
 147 694 l 2,16,17
 149 703 149 703 157 709 c 0,18,19
 164 714 164 714 172 715 c 0,0,1
437 799 m 0,20,21
 442 800 442 800 448 798 c 0,22,23
 457 796 457 796 463 788 c 0,24,25
 471 777 471 777 468 764 c 2,26,-1
 292 71 l 2,27,28
 290 62 290 62 282 56 c 0,29,30
 272 49 272 49 260.5 50.5 c 128,-1,31
 249 52 249 52 242 62 c 2,32,-1
 156 180 l 2,33,34
 149 190 149 190 150.5 201.5 c 128,-1,35
 152 213 152 213 161 220 c 1,36,37
 161 220 161 220 162 220 c 0,38,39
 171 227 171 227 182.5 225 c 128,-1,40
 194 223 194 223 201 214 c 2,41,-1
 252 144 l 1,42,-1
 413 778 l 2,43,44
 416 788 416 788 424 794 c 0,45,46
 430 798 430 798 437 799 c 0,20,21
EndSplineSet
EndChar

StartChar: quotedbl
Encoding: 34 34 5
Width: 201
GlyphClass: 1
Flags: W
LayerCount: 2
Fore
SplineSet
168 800 m 0,0,1
 173 800 173 800 178 799 c 0,2,3
 185 797 185 797 189 792 c 0,4,5
 202 779 202 779 197 763 c 2,6,-1
 168 670 l 2,7,8
 166 663 166 663 162 658 c 0,9,10
 150 646 150 646 133 651 c 0,11,12
 126 653 126 653 121 658 c 0,13,14
 109 671 109 671 114 687 c 2,15,-1
 143 780 l 2,16,17
 145 787 145 787 149 792 c 0,18,19
 155 798 155 798 163 799 c 0,20,21
 166 800 166 800 168 800 c 0,0,1
77 800 m 0,22,23
 82 800 82 800 87 799 c 0,24,25
 94 797 94 797 99 792 c 0,26,27
 111 779 111 779 106 763 c 2,28,-1
 78 670 l 2,29,30
 76 663 76 663 71 658 c 0,31,32
 59 646 59 646 42 651 c 0,33,34
 36 653 36 653 31 658 c 0,35,36
 18 671 18 671 23 687 c 2,37,-1
 52 780 l 2,38,39
 54 787 54 787 59 792 c 0,40,41
 64 798 64 798 72 799 c 0,42,43
 75 800 75 800 77 800 c 0,22,23
EndSplineSet
EndChar

StartChar: quotesingle
Encoding: 39 39 6
Width: 0
GlyphClass: 1
Flags: W
LayerCount: 2
Fore
SplineSet
-282 667 m 2,0,-1
 -62 783 l 2,1,2
 -56 786 -56 786 -49 786 c 0,3,4
 -27 786 -27 786 -22 764.5 c 128,-1,5
 -17 743 -17 743 -36 733 c 2,6,-1
 -255 617 l 2,7,8
 -261 614 -261 614 -268 614 c 0,9,10
 -290 614 -290 614 -295.5 635.5 c 128,-1,11
 -301 657 -301 657 -282 667 c 2,0,-1
EndSplineSet
EndChar

StartChar: parenleft
Encoding: 40 40 7
Width: 200
GlyphClass: 1
Flags: W
LayerCount: 2
Fore
SplineSet
28 -146 m 1,0,1
 32 -148 32 -148 34 -150 c 1,2,3
 32 -148 32 -148 28 -146 c 1,0,1
12 -199 m 0,4,5
 2 -197 2 -197 -5 -190 c 0,6,7
 -72 -122 -72 -122 -86 16 c 0,8,9
 -98 135 -98 135 -68 237 c 2,10,-1
 -50 306 l 1,11,-1
 -50 309 l 1,12,-1
 -32 378 l 2,13,14
 -18 444 -18 444 18 520 c 128,-1,15
 54 596 54 596 113 673 c 128,-1,16
 172 750 172 750 238 794 c 0,17,18
 245 799 245 799 255 799 c 0,19,20
 269 798 269 798 277 787 c 0,21,22
 283 780 283 780 283 771 c 0,23,24
 283 757 283 757 272 748 c 0,25,26
 265 743 265 743 256 743 c 1,27,28
 265 743 265 743 271 747 c 1,29,-1
 270 747 l 1,30,31
 186 691 186 691 114 572.5 c 128,-1,32
 42 454 42 454 23 364 c 1,33,-1
 5 294 l 1,34,-1
 4 291 l 1,35,-1
 -13 222 l 1,36,-1
 -14 221 l 1,37,38
 -41 129 -41 129 -30 21 c 0,39,40
 -18 -96 -18 -96 35 -150 c 0,41,42
 36 -152 36 -152 38 -154 c 0,43,44
 43 -161 43 -161 44 -170 c 0,45,46
 44 -185 44 -185 33 -193 c 0,47,48
 25 -198 25 -198 17 -199 c 0,49,50
 14 -199 14 -199 12 -199 c 0,4,5
EndSplineSet
EndChar

StartChar: parenright
Encoding: 41 41 8
Width: 200
GlyphClass: 1
Flags: W
LayerCount: 2
Fore
SplineSet
156 746 m 1,0,1
 161 743 161 743 166 742 c 2,2,3
 166 742 166 742 168 742 c 1,4,5
 162 743 162 743 156 746 c 1,0,1
172 799 m 0,6,7
 182 797 182 797 189 790 c 0,8,9
 256 722 256 722 270 584 c 0,10,11
 282 465 282 465 252 362 c 2,12,-1
 234 294 l 1,13,-1
 234 291 l 1,14,-1
 216 222 l 2,15,16
 202 156 202 156 166 80 c 128,-1,17
 130 4 130 4 71 -73 c 128,-1,18
 12 -150 12 -150 -54 -194 c 0,19,20
 -61 -199 -61 -199 -71 -199 c 0,21,22
 -85 -198 -85 -198 -93 -187 c 0,23,24
 -99 -180 -99 -180 -99 -171 c 0,25,26
 -99 -157 -99 -157 -88 -148 c 0,27,28
 -81 -143 -81 -143 -72 -143 c 1,29,30
 -81 -143 -81 -143 -86 -147 c 1,31,32
 -2 -91 -2 -91 70 27.5 c 128,-1,33
 142 146 142 146 161 236 c 1,34,-1
 179 306 l 1,35,-1
 180 309 l 1,36,-1
 197 378 l 1,37,-1
 198 379 l 1,38,39
 225 471 225 471 214 579 c 0,40,41
 202 696 202 696 149 750 c 0,42,43
 147 752 147 752 146 754 c 0,44,45
 140 761 140 761 140 770 c 0,46,47
 140 785 140 785 151 793 c 0,48,49
 159 798 159 798 167 799 c 0,50,51
 170 799 170 799 172 799 c 0,6,7
-86 -147 m 1024,52,-1
EndSplineSet
EndChar

StartChar: comma
Encoding: 44 44 9
Width: 200
GlyphClass: 1
Flags: W
LayerCount: 2
Fore
SplineSet
158 129 m 2,0,-1
 91 14 l 2,1,2
 83 0 83 0 67 0 c 0,3,4
 55 0 55 0 46.5 8.5 c 128,-1,5
 38 17 38 17 38 28 c 0,6,7
 38 36 38 36 42 42 c 2,8,-1
 109 158 l 2,9,10
 117 172 117 172 133 172 c 0,11,12
 145 172 145 172 153.5 163.5 c 128,-1,13
 162 155 162 155 162 143 c 0,14,15
 162 136 162 136 158 129 c 2,0,-1
EndSplineSet
EndChar

StartChar: hyphen
Encoding: 45 45 10
Width: 389
GlyphClass: 2
Flags: W
LayerCount: 2
Fore
SplineSet
69 328 m 0,0,1
 320 328 320 328 320 328 c 2,2,3
 335 328 335 328 343 317 c 0,4,5
 349 309 349 309 349 300 c 0,6,7
 349 286 349 286 338 277 c 0,8,9
 330 272 330 272 321 272 c 0,10,11
 70 272 70 272 70 272 c 2,12,13
 56 272 56 272 47 283 c 0,14,15
 41 291 41 291 41 300 c 0,16,17
 41 314 41 314 52 323 c 0,18,19
 60 328 60 328 69 328 c 0,0,1
EndSplineSet
EndChar

StartChar: period
Encoding: 46 46 11
Width: 159
GlyphClass: 1
Flags: W
LayerCount: 2
Fore
SplineSet
38 127 m 128,-1,1
 38 144 38 144 50.5 156 c 128,-1,2
 63 168 63 168 80 168 c 128,-1,3
 97 168 97 168 109 156 c 128,-1,4
 121 144 121 144 121 127 c 128,-1,5
 121 110 121 110 109 98 c 128,-1,6
 97 86 97 86 80 86 c 128,-1,7
 63 86 63 86 50.5 98 c 128,-1,0
 38 110 38 110 38 127 c 128,-1,1
EndSplineSet
EndChar

StartChar: zero
Encoding: 48 48 12
Width: 500
GlyphClass: 1
Flags: W
LayerCount: 2
Fore
SplineSet
165 420 m 0,0,1
 176 420 176 420 184 411 c 0,2,3
 354 227 354 227 354 227 c 2,4,5
 355 226 355 226 356 225 c 0,6,7
 362 216 362 216 361 205 c 128,-1,8
 360 194 360 194 353 187 c 0,9,10
 352 186 352 186 350 185 c 0,11,12
 342 179 342 179 331 180 c 128,-1,13
 320 181 320 181 313 189 c 0,14,15
 143 373 143 373 143 373 c 2,16,17
 142 374 142 374 141 375 c 0,18,19
 135 384 135 384 136 395 c 128,-1,20
 137 406 137 406 145 413 c 0,21,22
 146 414 146 414 147 415 c 0,23,24
 155 421 155 421 165 420 c 0,0,1
EndSplineSet
EndChar

StartChar: one
Encoding: 49 49 13
Width: 500
GlyphClass: 1
Flags: W
LayerCount: 2
Fore
SplineSet
378 799 m 0,0,1
 387 797 387 797 393 789 c 0,2,3
 401 778 401 778 398 764 c 2,4,-1
 158 -179 l 2,5,6
 156 -189 156 -189 148 -195 c 0,7,8
 137 -203 137 -203 124 -199 c 0,9,10
 114 -197 114 -197 108 -189 c 0,11,12
 100 -178 100 -178 103 -164 c 2,13,-1
 343 779 l 2,14,15
 346 789 346 789 354 795 c 0,16,17
 365 803 365 803 378 799 c 0,0,1
EndSplineSet
EndChar

StartChar: two
Encoding: 50 50 14
Width: 500
GlyphClass: 1
Flags: W
LayerCount: 2
Fore
SplineSet
161 668 m 0,0,1
 167 669 167 669 172 668 c 0,2,3
 182 665 182 665 188 657 c 0,4,5
 196 646 196 646 193 633 c 2,6,-1
 55 90 l 2,7,8
 52 80 52 80 44 75 c 0,9,10
 34 67 34 67 20 70 c 0,11,12
 11 73 11 73 5 81 c 0,13,14
 -3 92 -3 92 0 105 c 2,15,-1
 138 648 l 2,16,17
 140 657 140 657 148 663 c 0,18,19
 154 667 154 667 161 668 c 0,0,1
465 799 m 0,20,21
 472 801 472 801 479 799 c 0,22,23
 489 797 489 797 495 789 c 0,24,25
 503 778 503 778 500 764 c 2,26,-1
 260 -179 l 2,27,28
 257 -189 257 -189 249 -195 c 0,29,30
 239 -203 239 -203 225 -199 c 0,31,32
 216 -197 216 -197 210 -189 c 0,33,34
 202 -178 202 -178 205 -164 c 2,35,-1
 445 779 l 2,36,37
 447 789 447 789 455 795 c 0,38,39
 460 798 460 798 465 799 c 0,20,21
EndSplineSet
EndChar

StartChar: three
Encoding: 51 51 15
Width: 500
GlyphClass: 1
Flags: W
LayerCount: 2
Fore
SplineSet
301 668 m 0,0,1
 306 669 306 669 312 668 c 0,2,3
 321 665 321 665 327 657 c 0,4,5
 335 646 335 646 332 633 c 2,6,-1
 194 90 l 2,7,8
 192 80 192 80 184 75 c 0,9,10
 173 67 173 67 160 70 c 0,11,12
 150 73 150 73 144 81 c 0,13,14
 136 92 136 92 139 105 c 2,15,-1
 277 648 l 2,16,17
 280 657 280 657 288 663 c 0,18,19
 294 667 294 667 301 668 c 0,0,1
112 668 m 0,20,21
 117 669 117 669 123 668 c 0,22,23
 132 665 132 665 138 657 c 0,24,25
 146 646 146 646 143 633 c 2,26,-1
 5 90 l 2,27,28
 3 80 3 80 -5 75 c 0,29,30
 -16 67 -16 67 -29 70 c 0,31,32
 -39 73 -39 73 -45 81 c 0,33,34
 -53 92 -53 92 -50 105 c 2,35,-1
 88 648 l 2,36,37
 91 657 91 657 99 663 c 0,38,39
 105 667 105 667 112 668 c 0,20,21
520 799 m 0,40,41
 527 801 527 801 534 799 c 0,42,43
 544 797 544 797 550 789 c 0,44,45
 558 778 558 778 555 764 c 2,46,-1
 315 -179 l 2,47,48
 312 -189 312 -189 304 -195 c 0,49,50
 294 -203 294 -203 280 -199 c 0,51,52
 271 -197 271 -197 265 -189 c 0,53,54
 257 -178 257 -178 260 -164 c 2,55,-1
 500 779 l 2,56,57
 502 789 502 789 510 795 c 0,58,59
 515 798 515 798 520 799 c 0,40,41
EndSplineSet
EndChar

StartChar: four
Encoding: 52 52 16
Width: 500
GlyphClass: 1
Flags: W
LayerCount: 2
Fore
SplineSet
526 754 m 0,0,1
 534 755 534 755 541 752 c 256,2,3
 548 749 548 749 553 742 c 0,4,5
 563 730 563 730 557 715 c 0,6,7
 479 510 479 510 344 300 c 1,8,-1
 451 230 l 2,9,10
 455 227 455 227 458 223 c 0,11,12
 470 207 470 207 459 191 c 0,13,14
 457 186 457 186 453 183 c 0,15,16
 437 172 437 172 420 183 c 2,17,-1
 314 253 l 1,18,19
 241 145 241 145 160.5 45 c 128,-1,20
 80 -55 80 -55 36 -100 c 2,21,-1
 -9 -146 l 2,22,23
 -10 -147 -10 -147 -12 -149 c 0,24,25
 -20 -155 -20 -155 -30.5 -154 c 128,-1,26
 -41 -153 -41 -153 -49 -145 c 0,27,28
 -50 -144 -50 -144 -51 -142 c 0,29,30
 -58 -134 -58 -134 -57 -123.5 c 128,-1,31
 -56 -113 -56 -113 -49 -105 c 0,32,33
 -31 -88 -31 -88 -1 -56 c 128,-1,34
 29 -24 29 -24 112 77.5 c 128,-1,35
 195 179 195 179 266 284 c 1,36,-1
 133 372 l 2,37,38
 128 374 128 374 125 378 c 0,39,40
 113 394 113 394 124 411 c 0,41,42
 127 415 127 415 131 418 c 0,43,44
 136 422 136 422 142 423 c 0,45,46
 153 425 153 425 163 419 c 2,47,-1
 297 331 l 1,48,49
 429 537 429 537 504 736 c 0,50,51
 507 744 507 744 514 749 c 0,52,53
 519 753 519 753 526 754 c 0,0,1
EndSplineSet
EndChar

StartChar: five
Encoding: 53 53 17
Width: 500
GlyphClass: 1
Flags: W
LayerCount: 2
Fore
SplineSet
70 328 m 0,0,1
 431 328 431 328 431 328 c 2,2,3
 445 328 445 328 454 317 c 0,4,5
 459 309 459 309 459 300 c 0,6,7
 460 286 460 286 448 277 c 0,8,9
 441 272 441 272 432 272 c 0,10,11
 70 272 70 272 70 272 c 2,12,13
 56 272 56 272 48 283 c 0,14,15
 42 291 42 291 42 300 c 0,16,17
 42 314 42 314 53 323 c 0,18,19
 60 328 60 328 70 328 c 0,0,1
EndSplineSet
EndChar

StartChar: six
Encoding: 54 54 18
Width: 600
GlyphClass: 1
Flags: W
LayerCount: 2
Fore
SplineSet
401 800 m 0,0,1
 408 802 408 802 415 800 c 0,2,3
 427 796 427 796 433 786 c 128,-1,4
 439 776 439 776 436 765 c 2,5,-1
 348 418 l 1,6,-1
 554 418 l 2,7,8
 566 418 566 418 574.5 409.5 c 128,-1,9
 583 401 583 401 583 389.5 c 128,-1,10
 583 378 583 378 575 369.5 c 128,-1,11
 567 361 567 361 555 361 c 2,12,-1
 333 361 l 1,13,-1
 196 -179 l 2,14,15
 193 -190 193 -190 183 -196 c 128,-1,16
 173 -202 173 -202 161.5 -199 c 128,-1,17
 150 -196 150 -196 144 -186 c 128,-1,18
 138 -176 138 -176 141 -164 c 2,19,-1
 275 361 l 1,20,-1
 39 361 l 2,21,22
 27 361 27 361 19 369.5 c 128,-1,23
 11 378 11 378 10.5 389.5 c 128,-1,24
 10 401 10 401 18.5 409.5 c 128,-1,25
 27 418 27 418 38 418 c 2,26,-1
 289 418 l 1,27,-1
 381 780 l 2,28,29
 385 795 385 795 401 800 c 0,0,1
EndSplineSet
EndChar

StartChar: seven
Encoding: 55 55 19
Width: 600
GlyphClass: 1
Flags: W
LayerCount: 2
Fore
SplineSet
501 800 m 0,0,1
 508 801 508 801 516 800 c 0,2,3
 525 797 525 797 531 789 c 0,4,5
 539 778 539 778 536 765 c 2,6,-1
 448 418 l 1,7,8
 554 418 554 418 554 418 c 2,9,10
 569 418 569 418 577 406 c 0,11,12
 583 399 583 399 583 389 c 0,13,14
 583 375 583 375 572 366 c 0,15,16
 564 361 564 361 555 361 c 2,17,-1
 433 361 l 1,18,-1
 296 -179 l 2,19,20
 294 -189 294 -189 286 -195 c 0,21,22
 275 -203 275 -203 262 -199 c 0,23,24
 252 -196 252 -196 246 -188 c 0,25,26
 238 -177 238 -177 241 -164 c 2,27,-1
 375 361 l 1,28,-1
 204 361 l 1,29,-1
 136 90 l 2,30,31
 133 81 133 81 125 75 c 0,32,33
 115 67 115 67 101 70 c 0,34,35
 92 73 92 73 86 81 c 0,36,37
 78 92 78 92 81 105 c 2,38,-1
 146 361 l 1,39,40
 39 361 39 361 39 361 c 2,41,42
 25 361 25 361 16 373 c 0,43,44
 11 380 11 380 11 389 c 0,45,46
 11 404 11 404 22 412 c 0,47,48
 29 418 29 418 39 418 c 2,49,-1
 160 418 l 1,50,-1
 219 648 l 2,51,52
 221 657 221 657 229 663 c 0,53,54
 240 671 240 671 253 668 c 0,55,56
 263 665 263 665 269 657 c 0,57,58
 277 646 277 646 274 633 c 2,59,-1
 219 418 l 1,60,-1
 389 418 l 1,61,-1
 481 780 l 2,62,63
 484 789 484 789 492 795 c 0,64,65
 496 798 496 798 501 800 c 0,0,1
EndSplineSet
EndChar

StartChar: eight
Encoding: 56 56 20
Width: 600
GlyphClass: 1
Flags: W
LayerCount: 2
Fore
SplineSet
549 799 m 0,0,1
 556 801 556 801 563 799 c 0,2,3
 573 796 573 796 579 788 c 0,4,5
 587 777 587 777 584 764 c 2,6,-1
 495 417 l 1,7,8
 556 417 556 417 556 417 c 2,9,10
 570 417 570 417 579 405 c 0,11,12
 584 398 584 398 584 389 c 0,13,14
 585 374 585 374 573 366 c 0,15,16
 566 360 566 360 557 360 c 2,17,-1
 481 360 l 1,18,-1
 344 -180 l 2,19,20
 341 -189 341 -189 333 -195 c 0,21,22
 323 -203 323 -203 309 -200 c 0,23,24
 300 -197 300 -197 294 -189 c 0,25,26
 286 -178 286 -178 289 -165 c 2,27,-1
 422 360 l 1,28,-1
 320 360 l 1,29,-1
 227 -8 l 2,30,31
 224 -17 224 -17 216 -23 c 0,32,33
 206 -31 206 -31 192 -28 c 0,34,35
 183 -25 183 -25 177 -17 c 0,36,37
 169 -6 169 -6 172 7 c 2,38,-1
 262 360 l 1,39,-1
 160 360 l 1,40,-1
 66 -8 l 2,41,42
 64 -17 64 -17 56 -23 c 0,43,44
 45 -31 45 -31 32 -28 c 0,45,46
 22 -25 22 -25 16 -17 c 0,47,48
 8 -6 8 -6 11 7 c 2,49,-1
 101 360 l 1,50,51
 41 360 41 360 41 360 c 2,52,53
 27 360 27 360 18 372 c 0,54,55
 12 379 12 379 12 389 c 0,56,57
 12 403 12 403 23 412 c 0,58,59
 31 417 31 417 40 417 c 2,60,-1
 116 417 l 1,61,-1
 174 647 l 2,62,63
 177 657 177 657 185 663 c 0,64,65
 195 671 195 671 209 667 c 0,66,67
 218 665 218 665 224 657 c 0,68,69
 232 646 232 646 229 633 c 2,70,-1
 174 417 l 1,71,-1
 276 417 l 1,72,-1
 335 647 l 2,73,74
 337 657 337 657 345 663 c 0,75,76
 356 671 356 671 369 667 c 0,77,78
 379 665 379 665 385 657 c 0,79,80
 393 646 393 646 390 633 c 2,81,-1
 335 417 l 1,82,-1
 437 417 l 1,83,-1
 529 779 l 2,84,85
 531 789 531 789 539 795 c 0,86,87
 544 798 544 798 549 799 c 0,0,1
EndSplineSet
EndChar

StartChar: nine
Encoding: 57 57 21
Width: 500
GlyphClass: 1
Flags: W
LayerCount: 2
Fore
SplineSet
234 754 m 0,0,1
 550 754 550 754 550 754 c 2,2,3
 565 754 565 754 573 742 c 0,4,5
 583 730 583 730 577 715 c 0,6,7
 499 510 499 510 365 300 c 1,8,9
 462 190 462 190 462 190 c 2,10,11
 463 189 463 189 464 188 c 0,12,13
 470 179 470 179 469 168 c 128,-1,14
 468 157 468 157 460 150 c 0,15,16
 459 149 459 149 458 148 c 0,17,18
 449 142 449 142 438.5 143 c 128,-1,19
 428 144 428 144 420 153 c 2,20,-1
 333 251 l 1,21,22
 183 28 183 28 20 -137 c 0,23,24
 11 -146 11 -146 11 -146 c 2,25,26
 10 -148 10 -148 8 -149 c 0,27,28
 0 -155 0 -155 -10.5 -154 c 128,-1,29
 -21 -153 -21 -153 -29 -146 c 0,30,31
 -30 -144 -30 -144 -31 -143 c 0,32,33
 -38 -134 -38 -134 -37 -123.5 c 128,-1,34
 -36 -113 -36 -113 -29 -105 c 0,35,36
 -22 -99 -22 -99 -10 -87 c 128,-1,37
 2 -75 2 -75 38 -34.5 c 128,-1,38
 74 6 74 6 110.5 49.5 c 128,-1,39
 147 93 147 93 197.5 160.5 c 128,-1,40
 248 228 248 228 293 296 c 1,41,42
 171 432 171 432 171 432 c 2,43,44
 171 433 171 433 170 434 c 0,45,46
 163 443 163 443 164 454 c 128,-1,47
 165 465 165 465 173 472 c 0,48,49
 174 473 174 473 175 474 c 0,50,51
 183 480 183 480 194 479 c 0,52,53
 205 479 205 479 213 470 c 2,54,-1
 325 344 l 1,55,56
 438 523 438 523 508 697 c 1,57,58
 235 697 235 697 235 697 c 2,59,60
 221 697 221 697 212 709 c 0,61,62
 207 716 207 716 207 725 c 0,63,64
 206 740 206 740 218 748 c 0,65,66
 225 754 225 754 234 754 c 0,0,1
EndSplineSet
EndChar

StartChar: question
Encoding: 63 63 22
Width: 500
GlyphClass: 1
Flags: W
LayerCount: 2
Fore
SplineSet
201 676 m 0,0,1
 476 676 476 676 476 676 c 2,2,3
 491 676 491 676 499 665 c 0,4,5
 513 646 513 646 498 629 c 2,6,-1
 117 217 l 2,7,8
 117 216 117 216 116 216 c 0,9,10
 81 181 81 181 62.5 142 c 128,-1,11
 44 103 44 103 43 70 c 0,12,13
 41 42 41 42 51 26 c 0,14,15
 57 16 57 16 68 16 c 2,16,-1
 338 16 l 1,17,18
 332 160 332 160 332 160 c 2,19,20
 331 174 331 174 343 183 c 0,21,22
 350 188 350 188 359 189 c 0,23,24
 374 189 374 189 383 177 c 0,25,26
 388 170 388 170 388 161 c 0,27,28
 396 -11 396 -11 396 -11 c 2,29,30
 396 -26 396 -26 385 -35 c 0,31,32
 377 -40 377 -40 368 -40 c 2,33,-1
 69 -40 l 2,34,35
 49 -40 49 -40 31 -30 c 128,-1,36
 13 -20 13 -20 3 -3 c 0,37,38
 -16 28 -16 28 -14 74 c 0,39,40
 -8 172 -8 172 76 256 c 1,41,-1
 412 620 l 1,42,43
 202 620 202 620 202 620 c 2,44,45
 188 620 188 620 179 631 c 0,46,47
 174 639 174 639 173 648 c 0,48,49
 173 662 173 662 185 671 c 0,50,51
 192 676 192 676 201 676 c 0,0,1
EndSplineSet
EndChar

StartChar: bracketleft
Encoding: 91 91 23
Width: 200
GlyphClass: 1
Flags: W
LayerCount: 2
Fore
SplineSet
123 742 m 0,0,1
 124 742 124 742 128 742 c 1,2,3
 116 742 116 742 108 751 c 1,4,5
 115 744 115 744 123 742 c 0,0,1
-128 -147 m 1,6,7
 -121 -143 -121 -143 -113 -143 c 1,8,9
 -122 -143 -122 -143 -128 -147 c 1,6,7
46 -199 m 2,10,-1
 -111 -199 l 1,11,-1
 -109 -199 l 1,12,13
 -112 -199 -112 -199 -113 -199 c 0,14,15
 -126 -198 -126 -198 -134 -187 c 0,16,17
 -143 -175 -143 -175 -138 -160 c 1,18,-1
 -139 -162 l 1,19,-1
 100 777 l 1,20,21
 100 777 100 777 100 776 c 1,22,23
 102 787 102 787 111 793 c 0,24,25
 118 798 118 798 127 798 c 0,26,27
 128 798 128 798 128 798 c 1,28,-1
 127 799 l 1,29,30
 285 799 285 799 285 799 c 2,31,32
 299 799 299 799 308 787 c 0,33,34
 313 780 313 780 313 770 c 0,35,36
 314 756 314 756 302 747 c 0,37,38
 295 742 295 742 286 742 c 2,39,-1
 150 742 l 1,40,-1
 -75 -142 l 1,41,42
 46 -143 46 -143 46 -142 c 1,43,44
 60 -142 60 -142 69 -154 c 0,45,46
 74 -162 74 -162 74 -171 c 0,47,48
 74 -185 74 -185 63 -194 c 0,49,50
 56 -199 56 -199 46 -199 c 2,10,-1
EndSplineSet
EndChar

StartChar: bracketright
Encoding: 93 93 24
Width: 200
GlyphClass: 1
Flags: W
LayerCount: 2
Fore
SplineSet
64 -143 m 0,0,1
 62 -143 62 -143 59 -143 c 1,2,3
 71 -143 71 -143 79 -151 c 1,4,5
 72 -144 72 -144 64 -143 c 0,0,1
314 747 m 1,6,7
 308 743 308 743 300 742 c 1,8,9
 309 743 309 743 314 747 c 1,6,7
140 799 m 2,10,-1
 298 799 l 1,11,-1
 296 798 l 1,12,13
 299 798 299 798 300 798 c 0,14,15
 313 797 313 797 321 787 c 0,16,17
 330 774 330 774 325 760 c 1,18,-1
 325 761 l 1,19,-1
 87 -177 l 2,20,21
 85 -187 85 -187 76 -194 c 0,22,23
 69 -199 69 -199 60 -199 c 0,24,25
 59 -199 59 -199 59 -199 c 2,26,27
 -98 -199 -98 -199 -98 -199 c 2,28,29
 -112 -199 -112 -199 -121 -188 c 0,30,31
 -127 -180 -127 -180 -127 -171 c 0,32,33
 -127 -156 -127 -156 -115 -148 c 0,34,35
 -108 -142 -108 -142 -99 -142 c 2,36,-1
 37 -142 l 1,37,-1
 262 742 l 1,38,39
 141 742 141 742 141 742 c 2,40,41
 127 742 127 742 118 754 c 0,42,43
 113 761 113 761 113 770 c 0,44,45
 112 785 112 785 124 793 c 0,46,47
 131 799 131 799 140 799 c 2,10,-1
EndSplineSet
EndChar

StartChar: asciicircum
Encoding: 94 94 25
Width: 17
GlyphClass: 1
Flags: W
LayerCount: 2
Fore
SplineSet
-342 613 m 2,0,-1
 -177 706 l 2,1,2
 -159 717 -159 717 -143 702 c 2,3,-1
 -41 601 l 2,4,5
 -33 593 -33 593 -33 581 c 0,6,7
 -33 562 -33 562 -50.5 555 c 128,-1,8
 -68 548 -68 548 -81 561 c 2,9,-1
 -168 646 l 1,10,-1
 -314 564 l 2,11,12
 -321 560 -321 560 -328 560 c 0,13,14
 -350 560 -350 560 -355.5 581.5 c 128,-1,15
 -361 603 -361 603 -342 613 c 2,0,-1
EndSplineSet
EndChar

StartChar: a
Encoding: 97 97 26
Width: 400
GlyphClass: 1
Flags: W
LayerCount: 2
Fore
SplineSet
307 255 m 0,0,1
 307 248 307 248 303 236.5 c 128,-1,2
 299 225 299 225 288 208.5 c 128,-1,3
 277 192 277 192 260 178 c 128,-1,4
 243 164 243 164 213.5 154 c 128,-1,5
 184 144 184 144 147 144 c 0,6,7
 119 144 119 144 95 149 c 0,8,9
 85 151 85 151 76.5 155 c 128,-1,10
 68 159 68 159 62 159 c 0,11,12
 40 159 40 159 34.5 138 c 128,-1,13
 29 117 29 117 47.5 106.5 c 128,-1,14
 66 96 66 96 102.5 90.5 c 128,-1,15
 139 85 139 85 184.5 89 c 128,-1,16
 230 93 230 93 275 120 c 128,-1,17
 320 147 320 147 346 196 c 0,18,19
 364 228 364 228 364 255 c 0,20,21
 364 304 364 304 314 323 c 1,22,23
 355 350 355 350 366.5 384.5 c 128,-1,24
 378 419 378 419 363.5 446.5 c 128,-1,25
 349 474 349 474 317 493 c 128,-1,26
 285 512 285 512 246 512 c 0,27,28
 160 512 160 512 93 461 c 1,29,-1
 97 479 l 2,30,31
 101 492 101 492 92.5 503 c 128,-1,32
 84 514 84 514 70 514 c 0,33,34
 60 514 60 514 52.5 508 c 128,-1,35
 45 502 45 502 42 493 c 2,36,-1
 17 395 l 2,37,38
 17 394 17 394 17 392 c 2,39,-1
 -52 121 l 2,40,41
 -56 108 -56 108 -47.5 97 c 128,-1,42
 -39 86 -39 86 -25 86 c 0,43,44
 -15 86 -15 86 -7.5 92 c 128,-1,45
 0 98 0 98 3 107 c 2,46,-1
 69 369 l 1,47,48
 80 377 80 377 101 395 c 0,49,50
 127 417 127 417 142 427 c 128,-1,51
 157 437 157 437 185 446.5 c 128,-1,52
 213 456 213 456 246 456 c 0,53,54
 271 456 271 456 293 442 c 128,-1,55
 315 428 315 428 315 411 c 0,56,57
 315 390 315 390 273 365.5 c 128,-1,58
 231 341 231 341 153 324 c 1,59,60
 153 324 153 324 152 324 c 0,61,62
 142 322 142 322 135.5 314 c 128,-1,63
 129 306 129 306 129 296 c 0,64,65
 129 284 129 284 137.5 276 c 128,-1,66
 146 268 146 268 158 268 c 2,67,68
 158 268 158 268 168.5 269.5 c 128,-1,69
 179 271 179 271 193.5 273 c 128,-1,70
 208 275 208 275 225.5 276.5 c 128,-1,71
 243 278 243 278 260.5 276.5 c 128,-1,72
 278 275 278 275 290 271 c 0,73,74
 307 266 307 266 307 255 c 0,0,1
EndSplineSet
EndChar

StartChar: b
Encoding: 98 98 27
Width: 400
GlyphClass: 1
Flags: W
LayerCount: 2
Fore
SplineSet
281 740 m 1,0,1
 281 690 281 690 189 544 c 1,2,3
 232 690 232 690 267 729 c 0,4,5
 276 739 276 739 281 740 c 1,0,1
45 246 m 1,6,7
 33 214 33 214 33 193 c 0,8,9
 33 149 33 149 66 118 c 128,-1,10
 99 87 99 87 158 87 c 0,11,12
 205 87 205 87 246.5 109 c 128,-1,13
 288 131 288 131 316 166.5 c 128,-1,14
 344 202 344 202 361 246.5 c 128,-1,15
 378 291 378 291 381.5 334 c 128,-1,16
 385 377 385 377 374 417 c 128,-1,17
 363 457 363 457 337 482 c 0,18,19
 307 511 307 511 262 514 c 0,20,21
 250 515 250 515 241 506.5 c 128,-1,22
 232 498 232 498 232 486 c 0,23,24
 232 475 232 475 239.5 466.5 c 128,-1,25
 247 458 247 458 258 458 c 0,26,27
 301 454 301 454 317 409 c 0,28,29
 325 381 325 381 325 347 c 128,-1,30
 325 313 325 313 311.5 277 c 128,-1,31
 298 241 298 241 278.5 211 c 128,-1,32
 259 181 259 181 226.5 162 c 128,-1,33
 194 143 194 143 158 143 c 0,34,35
 117 143 117 143 99.5 164 c 128,-1,36
 82 185 82 185 95 218 c 0,37,38
 112 262 112 262 143 376 c 1,39,40
 338 646 338 646 338 740 c 0,41,42
 338 762 338 762 328 776 c 0,43,44
 319 789 319 789 303.5 795 c 128,-1,45
 288 801 288 801 266 795 c 128,-1,46
 244 789 244 789 225 767 c 0,47,48
 200 740 200 740 175.5 679.5 c 128,-1,49
 151 619 151 619 135.5 565.5 c 128,-1,50
 120 512 120 512 91 401 c 1,51,52
 38 328 38 328 -27 246 c 0,53,54
 -38 232 -38 232 -30 216 c 128,-1,55
 -22 200 -22 200 -5 200 c 0,56,57
 9 200 9 200 18 211 c 0,58,59
 31 229 31 229 45 246 c 1,6,7
EndSplineSet
EndChar

StartChar: c
Encoding: 99 99 28
Width: 400
GlyphClass: 1
Flags: W
LayerCount: 2
Fore
SplineSet
95 3 m 1,0,-1
 265 123 l 1,1,2
 263 60 263 60 232 -5 c 0,3,4
 223 -24 223 -24 210.5 -43 c 128,-1,5
 198 -62 198 -62 176.5 -87 c 128,-1,6
 155 -112 155 -112 123.5 -127.5 c 128,-1,7
 92 -143 92 -143 56 -143 c 0,8,9
 50 -142 50 -142 43 -130.5 c 128,-1,10
 36 -119 36 -119 36 -101 c 0,11,12
 36 -51 36 -51 95 3 c 1,0,-1
338 400 m 0,13,14
 338 449 338 449 298 481.5 c 128,-1,15
 258 514 258 514 199 514 c 0,16,17
 142 514 142 514 93 484.5 c 128,-1,18
 44 455 44 455 -11 396 c 0,19,20
 -23 382 -23 382 -15.5 365 c 128,-1,21
 -8 348 -8 348 10 348 c 0,22,23
 23 348 23 348 31 358 c 0,24,25
 80 411 80 411 118.5 434.5 c 128,-1,26
 157 458 157 458 199 458 c 0,27,28
 227 458 227 458 249.5 446.5 c 128,-1,29
 272 435 272 435 280.5 410.5 c 128,-1,30
 289 386 289 386 260 348 c 0,31,32
 224 301 224 301 139 253 c 0,33,34
 121 243 121 243 126.5 221.5 c 128,-1,35
 132 200 132 200 153 200 c 0,36,37
 157 200 157 200 169 204 c 128,-1,38
 181 208 181 208 193 212 c 128,-1,39
 205 216 205 216 219.5 214.5 c 128,-1,40
 234 213 234 213 243 204 c 0,41,42
 251 197 251 197 256 185 c 1,43,44
 59 48 59 48 58 47 c 0,45,46
 19 11 19 11 -1 -27 c 128,-1,47
 -21 -65 -21 -65 -21 -95 c 128,-1,48
 -21 -125 -21 -125 -10.5 -149 c 128,-1,49
 0 -173 0 -173 18 -186.5 c 128,-1,50
 36 -200 36 -200 56 -200 c 0,51,52
 119 -200 119 -200 173.5 -163 c 128,-1,53
 228 -126 228 -126 261 -71 c 128,-1,54
 294 -16 294 -16 310.5 46.5 c 128,-1,55
 327 109 327 109 320 161 c 1,56,-1
 382 204 l 2,57,58
 399 216 399 216 392.5 235.5 c 128,-1,59
 386 255 386 255 366 255 c 0,60,61
 357 255 357 255 350 250 c 2,62,-1
 303 218 l 1,63,64
 286 250 286 250 255 263 c 1,65,66
 338 332 338 332 338 400 c 0,13,14
EndSplineSet
EndChar

StartChar: d
Encoding: 100 100 29
Width: 400
GlyphClass: 1
Flags: W
LayerCount: 2
Fore
SplineSet
374 239 m 0,0,1
 371 231 371 231 364.5 218 c 128,-1,2
 358 205 358 205 339.5 181 c 128,-1,3
 321 157 321 157 302 148 c 1,4,5
 308 215 308 215 363 376 c 0,6,7
 386 432 386 432 400 477 c 0,8,9
 405 491 405 491 396.5 503 c 128,-1,10
 388 515 388 515 373 515 c 0,11,12
 354 515 354 515 347 496 c 0,13,14
 327 443 327 443 310 395 c 0,15,16
 236 207 236 207 183 155 c 0,17,18
 175 148 175 148 169 145 c 1,19,20
 162 188 162 188 198 301 c 0,21,22
 199 302 199 302 250 478 c 0,23,24
 254 492 254 492 245.5 503.5 c 128,-1,25
 237 515 237 515 223 515 c 0,26,27
 202 515 202 515 196 495 c 0,28,29
 168 412 168 412 120.5 303.5 c 128,-1,30
 73 195 73 195 32 155 c 0,31,32
 24 148 24 148 18 145 c 1,33,34
 11 188 11 188 47 301 c 0,35,36
 48 302 48 302 99 478 c 0,37,38
 103 492 103 492 94.5 503.5 c 128,-1,39
 86 515 86 515 72 515 c 0,40,41
 50 515 50 515 44 494 c 0,42,43
 -4 327 -4 327 -7 319 c 0,44,45
 -54 174 -54 174 -34 120 c 0,46,47
 -22 85 -22 85 12 85 c 0,48,49
 60 85 60 85 112 166 c 1,50,51
 109 110 109 110 138 92 c 0,52,53
 145 88 145 88 154 86 c 128,-1,54
 163 84 163 84 183 89.5 c 128,-1,55
 203 95 203 95 222 114 c 0,56,57
 237 128 237 128 245 139 c 1,58,59
 245 106 245 106 263 93 c 0,60,61
 272 87 272 87 283 87 c 0,62,63
 308 87 308 87 332 100 c 128,-1,64
 356 113 356 113 371 129.5 c 128,-1,65
 386 146 386 146 400 168 c 128,-1,66
 414 190 414 190 418.5 200 c 128,-1,67
 423 210 423 210 426 218 c 0,68,69
 432 232 432 232 423.5 244.5 c 128,-1,70
 415 257 415 257 400 257 c 0,71,72
 381 257 381 257 374 239 c 0,0,1
EndSplineSet
EndChar

StartChar: e
Encoding: 101 101 30
Width: 400
GlyphClass: 1
Flags: W
LayerCount: 2
Fore
SplineSet
372 245 m 0,0,1
 366 236 366 236 354.5 221 c 128,-1,2
 343 206 343 206 317.5 179.5 c 128,-1,3
 292 153 292 153 274 146 c 1,4,5
 274 198 274 198 348 397 c 0,6,7
 367 443 367 443 378 477 c 0,8,9
 383 491 383 491 374.5 502.5 c 128,-1,10
 366 514 366 514 351 514 c 0,11,12
 332 514 332 514 325 496 c 0,13,14
 308 454 308 454 295 418 c 0,15,16
 287 398 287 398 278 379 c 128,-1,17
 269 360 269 360 251.5 324.5 c 128,-1,18
 234 289 234 289 214.5 260 c 128,-1,19
 195 231 195 231 171.5 202.5 c 128,-1,20
 148 174 148 174 121 158 c 128,-1,21
 94 142 94 142 69 142 c 0,22,23
 48 142 48 142 41 160 c 0,24,25
 32 176 32 176 33 206 c 128,-1,26
 34 236 34 236 38 259.5 c 128,-1,27
 42 283 42 283 47 302 c 2,28,-1
 96 478 l 2,29,30
 100 492 100 492 91.5 503 c 128,-1,31
 83 514 83 514 69 514 c 0,32,33
 48 514 48 514 42 494 c 2,34,-1
 -7 318 l 2,35,36
 -12 302 -12 302 -16 281 c 128,-1,37
 -20 260 -20 260 -23.5 223.5 c 128,-1,38
 -27 187 -27 187 -18 154 c 128,-1,39
 -9 121 -9 121 14 103 c 0,40,41
 49 75 49 75 106 91 c 0,42,43
 164 106 164 106 220 172 c 1,44,45
 211 108 211 108 245 91 c 0,46,47
 255 85 255 85 267.5 86.5 c 128,-1,48
 280 88 280 88 291 91 c 128,-1,49
 302 94 302 94 315.5 103.5 c 128,-1,50
 329 113 329 113 339.5 121.5 c 128,-1,51
 350 130 350 130 361.5 142.5 c 128,-1,52
 373 155 373 155 381.5 164.5 c 128,-1,53
 390 174 390 174 398.5 185 c 128,-1,54
 407 196 407 196 411 202 c 128,-1,55
 415 208 415 208 419 213 c 0,56,57
 428 227 428 227 420 242 c 128,-1,58
 412 257 412 257 395 257 c 0,59,60
 380 257 380 257 372 245 c 0,0,1
EndSplineSet
EndChar

StartChar: f
Encoding: 102 102 31
Width: 401
GlyphClass: 1
Flags: W
LayerCount: 2
Fore
SplineSet
169 514 m 0,0,1
 198 514 198 514 217 495 c 0,2,3
 227 485 227 485 233 468 c 1,4,5
 242 481 242 481 251 490 c 0,6,7
 275 514 275 514 301 514 c 0,8,9
 334 514 334 514 356 494 c 0,10,11
 375 476 375 476 382 445 c 0,12,13
 392 400 392 400 377 321 c 0,14,15
 365 254 365 254 332 156 c 1,16,17
 337 158 337 158 342 158 c 0,18,19
 344 158 344 158 345 158 c 0,20,21
 357 156 357 156 364 147 c 0,22,23
 370 139 370 139 370 130 c 0,24,25
 370 115 370 115 358 107 c 0,26,27
 279 48 279 48 146 -71 c 1,28,29
 165 -70 165 -70 183 -74 c 0,30,31
 204 -77 204 -77 222 -87 c 128,-1,32
 240 -97 240 -97 257 -110.5 c 128,-1,33
 274 -124 274 -124 281 -128 c 0,34,35
 295 -137 295 -137 305.5 -140 c 128,-1,36
 316 -143 316 -143 335 -139.5 c 128,-1,37
 354 -136 354 -136 381 -123 c 0,38,39
 387 -120 387 -120 394 -120 c 0,40,41
 411 -120 411 -120 419 -136 c 0,42,43
 422 -142 422 -142 422 -148 c 0,44,45
 422 -166 422 -166 406 -174 c 0,46,47
 319 -217 319 -217 251 -177 c 0,48,49
 239 -169 239 -169 222.5 -157 c 128,-1,50
 206 -145 206 -145 195 -138 c 128,-1,51
 184 -131 184 -131 174 -129 c 0,52,53
 105 -118 105 -118 44 -163 c 0,54,55
 41 -165 41 -165 41 -165 c 2,56,57
 33 -172 33 -172 23 -172 c 0,58,59
 11 -172 11 -172 2.5 -164 c 128,-1,60
 -6 -156 -6 -156 -6 -144 c 256,61,62
 -6 -132 -6 -132 3 -123 c 0,63,64
 135 -1 135 -1 251 95 c 1,65,66
 309 266 309 266 322 332 c 0,67,68
 334 399 334 399 327 433 c 0,69,70
 324 447 324 447 317 453 c 0,71,72
 312 458 312 458 301 458 c 1,73,-1
 301 457 l 1,74,75
 296 455 296 455 292 450 c 0,76,77
 280 439 280 439 267 414 c 0,78,79
 252 389 252 389 233 341 c 1,80,81
 223 301 223 301 207 252 c 128,-1,82
 191 203 191 203 175 159.5 c 128,-1,83
 159 116 159 116 156 108 c 0,84,85
 150 89 150 89 129 89 c 0,86,87
 118 89 118 89 109.5 97 c 128,-1,88
 101 105 101 105 101 117 c 0,89,90
 101 121 101 121 102 124 c 0,91,92
 126 218 126 218 160 311 c 0,93,94
 165 324 165 324 179 358 c 1,95,96
 190 410 190 410 184 440 c 0,97,98
 181 451 181 451 177 455 c 0,99,100
 174 458 174 458 169 458 c 0,101,102
 153 458 153 458 134 440 c 0,103,104
 116 423 116 423 99 392 c 0,105,106
 90 375 90 375 81.5 356 c 128,-1,107
 73 337 73 337 70 327 c 2,108,-1
 66 316 l 2,109,110
 60 296 60 296 39 296 c 0,111,112
 35 296 35 296 31 297 c 0,113,114
 11 304 11 304 11 325 c 0,115,116
 11 329 11 329 12 333 c 0,117,118
 25 376 25 376 49 419 c 0,119,120
 71 458 71 458 95 481 c 0,121,122
 130 514 130 514 169 514 c 0,0,1
EndSplineSet
EndChar

StartChar: g
Encoding: 103 103 32
Width: 400
GlyphClass: 1
Flags: W
LayerCount: 2
Fore
SplineSet
200 455 m 0,0,1
 238 466 238 466 270.5 448.5 c 128,-1,2
 303 431 303 431 303 409 c 0,3,4
 303 385 303 385 258 367 c 0,5,6
 206 346 206 346 58 285 c 1,7,8
 62 310 62 310 77 345.5 c 128,-1,9
 92 381 92 381 114 405 c 0,10,11
 144 439 144 439 200 455 c 0,0,1
11 333 m 0,12,13
 -6 286 -6 286 -1 241.5 c 128,-1,14
 4 197 4 197 23.5 163 c 128,-1,15
 43 129 43 129 78.5 108 c 128,-1,16
 114 87 114 87 158 87 c 0,17,18
 194 87 194 87 225 94 c 128,-1,19
 256 101 256 101 286 117 c 128,-1,20
 316 133 316 133 333.5 145 c 128,-1,21
 351 157 351 157 381 180 c 0,22,23
 404 197 404 197 416 205 c 0,24,25
 433 217 433 217 427 237 c 128,-1,26
 421 257 421 257 400 257 c 0,27,28
 392 257 392 257 385.5 253 c 128,-1,29
 379 249 379 249 347 225 c 0,30,31
 308 195 308 195 287 181.5 c 128,-1,32
 266 168 266 168 231 156 c 128,-1,33
 196 144 196 144 158 144 c 0,34,35
 106 144 106 144 78 183 c 0,36,37
 65 201 65 201 59 224 c 1,38,39
 223 292 223 292 278 314 c 0,40,41
 317 329 317 329 338.5 354 c 128,-1,42
 360 379 360 379 360 409 c 0,43,44
 360 461 360 461 305 494.5 c 128,-1,45
 250 528 250 528 185 509 c 0,46,47
 121 491 121 491 79.5 451 c 128,-1,48
 38 411 38 411 11 333 c 0,12,13
148 -24 m 0,49,50
 137 -24 137 -24 127.5 -20 c 128,-1,51
 118 -16 118 -16 113 -11.5 c 128,-1,52
 108 -7 108 -7 104 -0.5 c 128,-1,53
 100 6 100 6 99 8.5 c 128,-1,54
 98 11 98 11 98 13 c 0,55,56
 96 23 96 23 88 29 c 128,-1,57
 80 35 80 35 70 35 c 0,58,59
 59 35 59 35 50.5 26.5 c 128,-1,60
 42 18 42 18 42 7 c 0,61,62
 42 -1 42 -1 48 -14 c 128,-1,63
 54 -27 54 -27 65.5 -42.5 c 128,-1,64
 77 -58 77 -58 99 -69 c 128,-1,65
 121 -80 121 -80 148 -80 c 0,66,67
 226 -80 226 -80 290 -16 c 0,68,69
 304 -3 304 -3 296.5 14.5 c 128,-1,70
 289 32 289 32 270 32 c 0,71,72
 259 32 259 32 250 24 c 0,73,74
 203 -24 203 -24 148 -24 c 0,49,50
EndSplineSet
EndChar

StartChar: h
Encoding: 104 104 33
Width: 400
GlyphClass: 1
Flags: W
LayerCount: 2
Fore
SplineSet
156 144 m 0,0,1
 94 144 94 144 67.5 197 c 128,-1,2
 41 250 41 250 63 314 c 0,3,4
 86 381 86 381 117.5 411 c 128,-1,5
 149 441 149 441 199 455 c 0,6,7
 233 465 233 465 264.5 451 c 128,-1,8
 296 437 296 437 302 415 c 0,9,10
 305 406 305 406 312.5 400 c 128,-1,11
 320 394 320 394 329 394 c 0,12,13
 343 394 343 394 351.5 405.5 c 128,-1,14
 360 417 360 417 357 430 c 0,15,16
 345 475 345 475 293 500.5 c 128,-1,17
 241 526 241 526 184 509 c 0,18,19
 119 491 119 491 77.5 451 c 128,-1,20
 36 411 36 411 9 333 c 0,21,22
 -8 286 -8 286 -2.5 242 c 128,-1,23
 3 198 3 198 22 163.5 c 128,-1,24
 41 129 41 129 76.5 108 c 128,-1,25
 112 87 112 87 156 87 c 0,26,27
 193 87 193 87 224 94 c 128,-1,28
 255 101 255 101 285 117 c 128,-1,29
 315 133 315 133 332.5 145 c 128,-1,30
 350 157 350 157 381 180 c 0,31,32
 404 197 404 197 416 205 c 0,33,34
 433 217 433 217 427 237 c 128,-1,35
 421 257 421 257 400 257 c 0,36,37
 393 257 393 257 386 253 c 128,-1,38
 379 249 379 249 347 225 c 0,39,40
 308 195 308 195 287 181.5 c 128,-1,41
 266 168 266 168 230.5 156 c 128,-1,42
 195 144 195 144 156 144 c 0,0,1
EndSplineSet
EndChar

StartChar: i
Encoding: 105 105 34
Width: 400
GlyphClass: 1
Flags: W
LayerCount: 2
Fore
SplineSet
377 244 m 0,0,1
 371 236 371 236 359.5 221 c 128,-1,2
 348 206 348 206 322.5 179.5 c 128,-1,3
 297 153 297 153 279 145 c 1,4,5
 279 197 279 197 351 392 c 0,6,7
 354 399 354 399 357 410 c 128,-1,8
 360 421 360 421 360 445.5 c 128,-1,9
 360 470 360 470 350 486 c 0,10,11
 346 493 346 493 340 498.5 c 128,-1,12
 334 504 334 504 322 510 c 128,-1,13
 310 516 310 516 290 514.5 c 128,-1,14
 270 513 270 513 246 502 c 0,15,16
 206 484 206 484 155 439.5 c 128,-1,17
 104 395 104 395 62 341 c 1,18,-1
 97 479 l 2,19,20
 100 492 100 492 91.5 503 c 128,-1,21
 83 514 83 514 69 514 c 0,22,23
 60 514 60 514 52 508 c 128,-1,24
 44 502 44 502 42 493 c 2,25,-1
 -53 120 l 2,26,27
 -56 107 -56 107 -47.5 96 c 128,-1,28
 -39 85 -39 85 -25 85 c 0,29,30
 -15 85 -15 85 -7.5 91.5 c 128,-1,31
 0 98 0 98 2 107 c 0,32,33
 8 128 8 128 20 157.5 c 128,-1,34
 32 187 32 187 54.5 229 c 128,-1,35
 77 271 77 271 116.5 318.5 c 128,-1,36
 156 366 156 366 204 406 c 0,37,38
 266 458 266 458 297 458 c 0,39,40
 301 458 301 458 301 457 c 0,41,42
 309 445 309 445 298 411 c 0,43,44
 261 310 261 310 243 249.5 c 128,-1,45
 225 189 225 189 223 158 c 128,-1,46
 221 127 221 127 230 111 c 0,47,48
 236 100 236 100 246.5 92.5 c 128,-1,49
 257 85 257 85 276.5 86.5 c 128,-1,50
 296 88 296 88 319 102 c 0,51,52
 341 116 341 116 366 142 c 0,53,54
 398 175 398 175 423 212 c 0,55,56
 433 226 433 226 425 241.5 c 128,-1,57
 417 257 417 257 400 257 c 0,58,59
 385 257 385 257 377 244 c 0,0,1
EndSplineSet
EndChar

StartChar: j
Encoding: 106 106 35
Width: 400
GlyphClass: 1
Flags: W
LayerCount: 2
Fore
SplineSet
129 -144 m 0,0,1
 111 -144 111 -144 103 -139 c 0,2,3
 99 -136 99 -136 99 -127 c 0,4,5
 99 -105 99 -105 124 -60 c 128,-1,6
 149 -15 149 -15 202 42 c 1,7,8
 179 -80 179 -80 163 -112 c 0,9,10
 148 -144 148 -144 129 -144 c 0,0,1
42 -127 m 0,11,12
 42 -134 42 -134 43 -140.5 c 128,-1,13
 44 -147 44 -147 49 -158.5 c 128,-1,14
 54 -170 54 -170 62.5 -179 c 128,-1,15
 71 -188 71 -188 88 -194.5 c 128,-1,16
 105 -201 105 -201 129 -201 c 0,17,18
 184 -201 184 -201 215 -137 c 0,19,20
 233 -97 233 -97 251 -2 c 128,-1,21
 269 93 269 93 276 113 c 1,22,23
 346 174 346 174 410 206 c 0,24,25
 430 215 430 215 425 237 c 128,-1,26
 420 259 420 259 398 259 c 0,27,28
 391 259 391 259 385 256 c 0,29,30
 345 236 345 236 302 206 c 1,31,32
 306 221 306 221 324 288.5 c 128,-1,33
 342 356 342 356 358 416 c 128,-1,34
 374 476 374 476 374 477 c 0,35,36
 378 491 378 491 369.5 502 c 128,-1,37
 361 513 361 513 347 513 c 0,38,39
 326 513 326 513 320 493 c 0,40,41
 310 462 310 462 292 417 c 128,-1,42
 274 372 274 372 235.5 300.5 c 128,-1,43
 197 229 197 229 157 189 c 0,44,45
 139 170 139 170 120 158 c 128,-1,46
 101 146 101 146 87 143 c 128,-1,47
 73 140 73 140 62.5 141 c 128,-1,48
 52 142 52 142 47 146 c 0,49,50
 35 156 35 156 32 185 c 128,-1,51
 29 214 29 214 33.5 244.5 c 128,-1,52
 38 275 38 275 45 301 c 2,53,-1
 94 477 l 2,54,55
 98 491 98 491 89.5 502 c 128,-1,56
 81 513 81 513 67 513 c 0,57,58
 45 513 45 513 39 492 c 2,59,-1
 -9 317 l 2,60,61
 -14 302 -14 302 -18 281.5 c 128,-1,62
 -22 261 -22 261 -25.5 224 c 128,-1,63
 -29 187 -29 187 -20 153.5 c 128,-1,64
 -11 120 -11 120 12 102 c 0,65,66
 46 74 46 74 104 89 c 0,67,68
 175 108 175 108 242 202 c 1,69,70
 232 166 232 166 226 145 c 1,71,72
 112 44 112 44 64 -51 c 0,73,74
 42 -95 42 -95 42 -127 c 0,11,12
EndSplineSet
EndChar

StartChar: k
Encoding: 107 107 36
Width: 400
GlyphClass: 1
Flags: W
LayerCount: 2
Fore
SplineSet
200 455 m 0,0,1
 238 466 238 466 270.5 448.5 c 128,-1,2
 303 431 303 431 303 409 c 0,3,4
 303 385 303 385 258 367 c 0,5,6
 206 346 206 346 58 285 c 1,7,8
 62 310 62 310 77 345.5 c 128,-1,9
 92 381 92 381 114 405 c 0,10,11
 144 439 144 439 200 455 c 0,0,1
11 333 m 0,12,13
 -6 286 -6 286 -1 241.5 c 128,-1,14
 4 197 4 197 23.5 163 c 128,-1,15
 43 129 43 129 78.5 108 c 128,-1,16
 114 87 114 87 158 87 c 0,17,18
 194 87 194 87 225 94 c 128,-1,19
 256 101 256 101 286 117 c 128,-1,20
 316 133 316 133 333.5 145 c 128,-1,21
 351 157 351 157 381 180 c 0,22,23
 404 197 404 197 416 205 c 0,24,25
 433 217 433 217 427 237 c 128,-1,26
 421 257 421 257 400 257 c 0,27,28
 392 257 392 257 385.5 253 c 128,-1,29
 379 249 379 249 347 225 c 0,30,31
 308 195 308 195 287 181.5 c 128,-1,32
 266 168 266 168 231 156 c 128,-1,33
 196 144 196 144 158 144 c 0,34,35
 106 144 106 144 78 183 c 0,36,37
 65 201 65 201 59 224 c 1,38,39
 223 292 223 292 278 314 c 0,40,41
 317 329 317 329 338.5 354 c 128,-1,42
 360 379 360 379 360 409 c 0,43,44
 360 461 360 461 305 494.5 c 128,-1,45
 250 528 250 528 185 509 c 0,46,47
 121 491 121 491 79.5 451 c 128,-1,48
 38 411 38 411 11 333 c 0,12,13
EndSplineSet
EndChar

StartChar: l
Encoding: 108 108 37
Width: 400
GlyphClass: 1
Flags: W
LayerCount: 2
Fore
SplineSet
234 478 m 0,0,1
 253 478 253 478 270.5 467 c 128,-1,2
 288 456 288 456 288 442 c 0,3,4
 288 422 288 422 251.5 396 c 128,-1,5
 215 370 215 370 145 347 c 0,6,7
 125 341 125 341 125 320 c 0,8,9
 125 306 125 306 136.5 297.5 c 128,-1,10
 148 289 148 289 162 293 c 0,11,12
 165 294 165 294 172.5 296 c 128,-1,13
 180 298 180 298 198 301.5 c 128,-1,14
 216 305 216 305 232.5 307 c 128,-1,15
 249 309 249 309 267 308 c 128,-1,16
 285 307 285 307 296 302 c 0,17,18
 309 297 309 297 309 283 c 0,19,20
 309 266 309 266 296 239 c 0,21,22
 260 162 260 162 159 162 c 0,23,24
 145 162 145 162 130 164 c 0,25,26
 85 170 85 170 72 187 c 0,27,28
 59 203 59 203 40 196.5 c 128,-1,29
 21 190 21 190 21 170 c 0,30,31
 21 161 21 161 27 153 c 0,32,33
 64 105 64 105 159 105 c 0,34,35
 218 105 218 105 269.5 131 c 128,-1,36
 321 157 321 157 348 215 c 0,37,38
 365 253 365 253 365 283 c 0,39,40
 365 310 365 310 349 331.5 c 128,-1,41
 333 353 333 353 300 361 c 1,42,43
 334 389 334 389 342 421 c 128,-1,44
 350 453 350 453 336.5 477.5 c 128,-1,45
 323 502 323 502 295 518 c 128,-1,46
 267 534 267 534 234 534 c 0,47,48
 192 534 192 534 158.5 526 c 128,-1,49
 125 518 125 518 100 500.5 c 128,-1,50
 75 483 75 483 58.5 466.5 c 128,-1,51
 42 450 42 450 22 424 c 0,52,53
 11 410 11 410 19 394 c 128,-1,54
 27 378 27 378 44 378 c 0,55,56
 58 378 58 378 67 389 c 0,57,58
 103 436 103 436 137.5 457 c 128,-1,59
 172 478 172 478 234 478 c 0,0,1
EndSplineSet
EndChar

StartChar: m
Encoding: 109 109 38
Width: 400
GlyphClass: 1
Flags: W
LayerCount: 2
Fore
SplineSet
208 367 m 1,0,1
 201 418 201 418 198 466 c 128,-1,2
 195 514 195 514 197 570 c 128,-1,3
 199 626 199 626 216 669 c 128,-1,4
 233 712 233 712 263 730 c 0,5,6
 296 750 296 750 348 740 c 0,7,8
 355 739 355 739 359 737 c 128,-1,9
 363 735 363 735 366.5 728 c 128,-1,10
 370 721 370 721 370 709 c 0,11,12
 370 629 370 629 208 367 c 1,0,1
283 381 m 1,13,14
 378 537 378 537 410 626 c 128,-1,15
 442 715 442 715 414 760 c 0,16,17
 396 789 396 789 358 796 c 0,18,19
 338 800 338 800 319.5 800.5 c 128,-1,20
 301 801 301 801 278.5 796.5 c 128,-1,21
 256 792 256 792 236.5 781 c 128,-1,22
 217 770 217 770 198.5 749.5 c 128,-1,23
 180 729 180 729 167.5 699.5 c 128,-1,24
 155 670 155 670 147 625 c 128,-1,25
 139 580 139 580 139 524 c 0,26,27
 139 436 139 436 158 319 c 1,28,-1
 -14 255 l 2,29,30
 -33 248 -33 248 -33 229 c 0,31,32
 -33 214 -33 214 -21 205.5 c 128,-1,33
 -9 197 -9 197 5 202 c 2,34,-1
 134 249 l 1,35,36
 23 75 23 75 -17 7 c 0,37,38
 -19 3 -19 3 -22.5 -6 c 128,-1,39
 -26 -15 -26 -15 -31.5 -37 c 128,-1,40
 -37 -59 -37 -59 -37 -80 c 0,41,42
 -37 -134 -37 -134 -4 -167 c 128,-1,43
 29 -200 29 -200 82 -200 c 0,44,45
 140 -200 140 -200 187.5 -180 c 128,-1,46
 235 -160 235 -160 266.5 -126 c 128,-1,47
 298 -92 298 -92 320 -47 c 128,-1,48
 342 -2 342 -2 351 48.5 c 128,-1,49
 360 99 360 99 358 151 c 128,-1,50
 356 203 356 203 344 252 c 1,51,52
 361 247 361 247 372.5 256 c 128,-1,53
 384 265 384 265 384 279 c 0,54,55
 384 289 384 289 377 297 c 128,-1,56
 370 305 370 305 359 307 c 1,57,-1
 358 308 l 2,58,59
 347 314 347 314 322.5 338.5 c 128,-1,60
 298 363 298 363 283 381 c 1,13,14
251 328 m 1,61,62
 274 293 274 293 287 244.5 c 128,-1,63
 300 196 300 196 302 143.5 c 128,-1,64
 304 91 304 91 291 39.5 c 128,-1,65
 278 -12 278 -12 253.5 -52.5 c 128,-1,66
 229 -93 229 -93 184.5 -118 c 128,-1,67
 140 -143 140 -143 82 -143 c 0,68,69
 49 -143 49 -143 33.5 -124 c 128,-1,70
 18 -105 18 -105 19 -78 c 128,-1,71
 20 -51 20 -51 33 -21 c 0,72,73
 73 48 73 48 169 199 c 0,74,75
 225 287 225 287 251 328 c 1,61,62
EndSplineSet
EndChar

StartChar: n
Encoding: 110 110 39
Width: 400
GlyphClass: 1
Flags: W
LayerCount: 2
Fore
SplineSet
281 455 m 0,0,1
 308 442 308 442 305 367 c 1,2,3
 297 364 297 364 286 361 c 128,-1,4
 275 358 275 358 254 352.5 c 128,-1,5
 233 347 233 347 217 348.5 c 128,-1,6
 201 350 201 350 197 360 c 0,7,8
 191 373 191 373 199 403.5 c 128,-1,9
 207 434 207 434 236 450 c 0,10,11
 249 457 249 457 259 459 c 0,12,13
 273 459 273 459 281 455 c 0,0,1
97 479 m 2,14,15
 101 492 101 492 92.5 503 c 128,-1,16
 84 514 84 514 70 514 c 0,17,18
 60 514 60 514 52.5 508 c 128,-1,19
 45 502 45 502 42 493 c 2,20,-1
 -52 121 l 2,21,22
 -58 100 -58 100 -39 89.5 c 128,-1,23
 -20 79 -20 79 -5 94 c 2,24,-1
 83 185 l 1,25,26
 87 141 87 141 111 113.5 c 128,-1,27
 135 86 135 86 174 86 c 0,28,29
 340 86 340 86 360 345 c 0,30,31
 374 516 374 516 258 516 c 0,32,33
 256 516 256 516 254 515 c 0,34,35
 250 515 250 515 242 513 c 128,-1,36
 234 511 234 511 215.5 502.5 c 128,-1,37
 197 494 197 494 182 481 c 128,-1,38
 167 468 167 468 154 442.5 c 128,-1,39
 141 417 141 417 139 385 c 0,40,41
 134 329 134 329 173 305 c 0,42,43
 215 279 215 279 299 305 c 1,44,45
 291 253 291 253 277 218.5 c 128,-1,46
 263 184 263 184 245 168.5 c 128,-1,47
 227 153 227 153 210.5 147.5 c 128,-1,48
 194 142 194 142 174 142 c 0,49,50
 147 142 147 142 141 180 c 128,-1,51
 135 218 135 218 152 257 c 0,52,53
 155 262 155 262 155 267 c 0,54,55
 156 280 156 280 148 289 c 0,56,57
 139 298 139 298 127 298 c 256,58,59
 115 298 115 298 107 290 c 2,60,-1
 29 210 l 1,61,-1
 97 479 l 2,14,15
EndSplineSet
EndChar

StartChar: o
Encoding: 111 111 40
Width: 336
GlyphClass: 1
Flags: W
LayerCount: 2
Fore
SplineSet
54 179 m 0,0,1
 53 184 53 184 57.5 192 c 128,-1,2
 62 200 62 200 79.5 213.5 c 128,-1,3
 97 227 97 227 124 240 c 0,4,5
 182 267 182 267 278 291 c 1,6,7
 257 225 257 225 218 188 c 0,8,9
 188 161 188 161 152.5 153 c 128,-1,10
 117 145 117 145 91 153.5 c 128,-1,11
 65 162 65 162 54 179 c 0,0,1
287 351 m 1,12,13
 -3 284 -3 284 -3 181 c 0,14,15
 -3 162 -3 162 6 148 c 0,16,17
 23 122 23 122 55.5 106.5 c 128,-1,18
 88 91 88 91 127.5 93 c 128,-1,19
 167 95 167 95 206 112 c 128,-1,20
 245 129 245 129 280 172.5 c 128,-1,21
 315 216 315 216 333 278 c 0,22,23
 350 344 350 344 339 398 c 128,-1,24
 328 452 328 452 289 487.5 c 128,-1,25
 250 523 250 523 195 523 c 0,26,27
 60 523 60 523 -15 374 c 0,28,29
 -22 360 -22 360 -13.5 346.5 c 128,-1,30
 -5 333 -5 333 11 333 c 0,31,32
 28 333 28 333 36 348 c 0,33,34
 95 466 95 466 195 466 c 0,35,36
 241 466 241 466 264 431.5 c 128,-1,37
 287 397 287 397 287 351 c 1,12,13
EndSplineSet
EndChar

StartChar: p
Encoding: 112 112 41
Width: 400
GlyphClass: 1
Flags: W
LayerCount: 2
Fore
SplineSet
31 152 m 1,0,1
 32 157 32 157 33.5 167 c 128,-1,2
 35 177 35 177 46 197.5 c 128,-1,3
 57 218 57 218 75 230 c 1,4,5
 46 171 46 171 31 152 c 1,0,1
333 447 m 1,6,7
 328 399 328 399 299 365 c 0,8,9
 291 357 291 357 275 349 c 1,10,11
 313 424 313 424 333 447 c 1,6,7
172 264 m 1,12,13
 149 205 149 205 157.5 165.5 c 128,-1,14
 166 126 166 126 193 106 c 128,-1,15
 220 86 220 86 258 86 c 0,16,17
 300 86 300 86 358 142 c 0,18,19
 392 175 392 175 420 212 c 0,20,21
 430 226 430 226 422 241.5 c 128,-1,22
 414 257 414 257 397 257 c 0,23,24
 383 257 383 257 374 246 c 0,25,26
 358 224 358 224 330 194.5 c 128,-1,27
 302 165 302 165 278 151 c 0,28,29
 265 143 265 143 258 143 c 0,30,31
 238 143 238 143 227 152 c 0,32,33
 191 177 191 177 241 279 c 1,34,35
 315 297 315 297 342 328 c 0,36,37
 366 356 366 356 379 398 c 0,38,39
 389 428 389 428 389.5 452.5 c 128,-1,40
 390 477 390 477 382 490.5 c 128,-1,41
 374 504 374 504 361.5 510.5 c 128,-1,42
 349 517 349 517 334 513.5 c 128,-1,43
 319 510 319 510 305 499 c 0,44,45
 283 482 283 482 261 443.5 c 128,-1,46
 239 405 239 405 202 328 c 1,47,48
 195 327 195 327 184 324 c 1,49,50
 214 391 214 391 207 433.5 c 128,-1,51
 200 476 200 476 176.5 495.5 c 128,-1,52
 153 515 153 515 123 514 c 0,53,54
 72 513 72 513 28 476 c 0,55,56
 13 463 13 463 20 444.5 c 128,-1,57
 27 426 27 426 46 426 c 0,58,59
 57 426 57 426 65 432 c 0,60,61
 96 458 96 458 126 458 c 0,62,63
 134 458 134 458 139.5 453 c 128,-1,64
 145 448 145 448 148 437.5 c 128,-1,65
 151 427 151 427 150.5 413 c 128,-1,66
 150 399 150 399 144 378.5 c 128,-1,67
 138 358 138 358 127 335 c 0,68,69
 121 323 121 323 113 308 c 1,70,71
 50 289 50 289 20 258 c 0,72,73
 -25 211 -25 211 -25 149 c 0,74,75
 -25 120 -25 120 -11 103 c 128,-1,76
 3 86 3 86 21 86 c 128,-1,77
 39 86 39 86 57 97 c 0,78,79
 70 107 70 107 84 128 c 0,80,81
 102 155 102 155 153 259 c 1,82,83
 161 261 161 261 172 264 c 1,12,13
EndSplineSet
EndChar

StartChar: q
Encoding: 113 113 42
Width: 400
GlyphClass: 1
Flags: W
LayerCount: 2
Fore
SplineSet
34 152 m 1,0,1
 35 167 35 167 43 186 c 128,-1,2
 51 205 51 205 64 218 c 0,3,4
 73 228 73 228 81 235 c 1,5,6
 49 171 49 171 34 152 c 1,0,1
377 245 m 0,7,8
 353 210 353 210 318 176.5 c 128,-1,9
 283 143 283 143 261 143 c 0,10,11
 241 143 241 143 230 152 c 0,12,13
 217 161 217 161 215.5 181.5 c 128,-1,14
 214 202 214 202 220.5 223.5 c 128,-1,15
 227 245 227 245 239 269 c 0,16,17
 285 364 285 364 304.5 400 c 128,-1,18
 324 436 324 436 340 452 c 0,19,20
 344 456 344 456 347 458 c 0,21,22
 354 457 354 457 357 455 c 256,23,24
 360 453 360 453 360 442 c 0,25,26
 360 418 360 418 341 373 c 0,27,28
 334 359 334 359 342.5 346 c 128,-1,29
 351 333 351 333 366 333 c 0,30,31
 385 333 385 333 392 350 c 0,32,33
 417 406 417 406 417 442 c 0,34,35
 417 483 417 483 389 502 c 0,36,37
 371 514 371 514 346 514 c 0,38,39
 314 514 314 514 287 477.5 c 128,-1,40
 260 441 260 441 217 353 c 1,41,42
 207 353 207 353 198 352 c 1,43,44
 225 429 225 429 198.5 472.5 c 128,-1,45
 172 516 172 516 126 514 c 0,46,47
 75 513 75 513 31 476 c 0,48,49
 16 463 16 463 23 444.5 c 128,-1,50
 30 426 30 426 49 426 c 0,51,52
 60 426 60 426 68 432 c 0,53,54
 99 458 99 458 129 458 c 0,55,56
 136 458 136 458 142 453 c 128,-1,57
 148 448 148 448 151 438 c 128,-1,58
 154 428 154 428 153.5 414 c 128,-1,59
 153 400 153 400 147 379.5 c 128,-1,60
 141 359 141 359 130 335 c 1,61,62
 77 314 77 314 23 258 c 0,63,64
 -22 211 -22 211 -22 149 c 0,65,66
 -22 120 -22 120 -8 103 c 128,-1,67
 6 86 6 86 24 86 c 128,-1,68
 42 86 42 86 60 97 c 0,69,70
 73 107 73 107 87 128 c 0,71,72
 104 154 104 154 170 289 c 1,73,74
 178 291 178 291 187 293 c 1,75,76
 158 233 158 233 158 187 c 0,77,78
 158 143 158 143 186 114.5 c 128,-1,79
 214 86 214 86 261 86 c 0,80,81
 307 86 307 86 364 142 c 0,82,83
 398 175 398 175 423 212 c 0,84,85
 433 227 433 227 425 242 c 128,-1,86
 417 257 417 257 400 257 c 0,87,88
 385 257 385 257 377 245 c 0,7,8
EndSplineSet
EndChar

StartChar: r
Encoding: 114 114 43
Width: 400
GlyphClass: 1
Flags: W
LayerCount: 2
Fore
SplineSet
329 737 m 0,0,1
 333 728 333 728 333.5 712 c 128,-1,2
 334 696 334 696 327.5 670 c 128,-1,3
 321 644 321 644 307.5 613.5 c 128,-1,4
 294 583 294 583 267 541.5 c 128,-1,5
 240 500 240 500 202 457 c 1,6,7
 236 596 236 596 282 683 c 0,8,9
 302 722 302 722 318 736 c 2,10,-1
 324 741 l 2,11,12
 326 741 326 741 329 737 c 0,0,1
116 290 m 1,13,14
 103 136 103 136 160 98 c 0,15,16
 176 86 176 86 198 85.5 c 128,-1,17
 220 85 220 85 243.5 93.5 c 128,-1,18
 267 102 267 102 290 114.5 c 128,-1,19
 313 127 313 127 337.5 144.5 c 128,-1,20
 362 162 362 162 379.5 177 c 128,-1,21
 397 192 397 192 414 208 c 0,22,23
 429 221 429 221 422 239 c 128,-1,24
 415 257 415 257 395 257 c 0,25,26
 384 257 384 257 376 250 c 0,27,28
 317 195 317 195 266 166 c 0,29,30
 209 133 209 133 192 145 c 0,31,32
 183 150 183 150 177 170.5 c 128,-1,33
 171 191 171 191 169.5 236 c 128,-1,34
 168 281 168 281 180 351 c 1,35,36
 272 442 272 442 326 529 c 0,37,38
 390 633 390 633 390 710 c 0,39,40
 390 753 390 753 370.5 775 c 128,-1,41
 351 797 351 797 324 797 c 0,42,43
 313 797 313 797 302.5 792.5 c 128,-1,44
 292 788 292 788 274.5 772.5 c 128,-1,45
 257 757 257 757 236 718 c 128,-1,46
 215 679 215 679 193 619 c 0,47,48
 149 502 149 502 127 378 c 1,49,50
 61 315 61 315 -22 251 c 0,51,52
 -38 239 -38 239 -31.5 219.5 c 128,-1,53
 -25 200 -25 200 -5 200 c 0,54,55
 5 200 5 200 12 206 c 0,56,57
 68 248 68 248 116 290 c 1,13,14
EndSplineSet
EndChar

StartChar: s
Encoding: 115 115 44
Width: 400
GlyphClass: 1
Flags: W
LayerCount: 2
Fore
SplineSet
228 451 m 0,0,1
 261 451 261 451 283 424.5 c 128,-1,2
 305 398 305 398 308.5 360 c 128,-1,3
 312 322 312 322 302 279 c 0,4,5
 292 241 292 241 278 215.5 c 128,-1,6
 264 190 264 190 245 176 c 128,-1,7
 226 162 226 162 207.5 155 c 128,-1,8
 189 148 189 148 162 142 c 0,9,10
 144 139 144 139 117.5 144.5 c 128,-1,11
 91 150 91 150 83 161 c 0,12,13
 71 178 71 178 51 172 c 128,-1,14
 31 166 31 166 31 145 c 0,15,16
 31 136 31 136 37 129 c 0,17,18
 52 107 52 107 84 95 c 0,19,20
 130 78 130 78 173 87 c 0,21,22
 206 93 206 93 230 102.5 c 128,-1,23
 254 112 254 112 279.5 131 c 128,-1,24
 305 150 305 150 324.5 183 c 128,-1,25
 344 216 344 216 357 264 c 0,26,27
 372 329 372 329 362 383.5 c 128,-1,28
 352 438 352 438 315.5 473 c 128,-1,29
 279 508 279 508 228 508 c 0,30,31
 147 508 147 508 93 462 c 1,32,-1
 97 479 l 2,33,34
 101 492 101 492 92.5 503 c 128,-1,35
 84 514 84 514 70 514 c 0,36,37
 60 514 60 514 52.5 508 c 128,-1,38
 45 502 45 502 42 493 c 2,39,-1
 9 363 l 2,40,41
 9 362 9 362 8 361 c 2,42,-1
 -52 121 l 2,43,44
 -56 108 -56 108 -47.5 97 c 128,-1,45
 -39 86 -39 86 -25 86 c 0,46,47
 -15 86 -15 86 -7.5 92 c 128,-1,48
 0 98 0 98 3 107 c 2,49,-1
 62 343 l 1,50,51
 106 402 106 402 141.5 426.5 c 128,-1,52
 177 451 177 451 228 451 c 0,0,1
EndSplineSet
EndChar

StartChar: t
Encoding: 116 116 45
Width: 400
GlyphClass: 1
Flags: W
LayerCount: 2
Fore
SplineSet
285 377 m 1,0,1
 253 289 253 289 238 235 c 128,-1,2
 223 181 223 181 222.5 154 c 128,-1,3
 222 127 222 127 230 111 c 0,4,5
 232 107 232 107 236.5 101.5 c 128,-1,6
 241 96 241 96 252.5 90.5 c 128,-1,7
 264 85 264 85 278.5 86 c 128,-1,8
 293 87 293 87 316 101 c 128,-1,9
 339 115 339 115 366 143 c 0,10,11
 398 175 398 175 423 213 c 0,12,13
 433 227 433 227 425 242 c 128,-1,14
 417 257 417 257 400 257 c 0,15,16
 385 257 385 257 377 245 c 0,17,18
 371 236 371 236 359.5 221 c 128,-1,19
 348 206 348 206 322.5 179.5 c 128,-1,20
 297 153 297 153 279 145 c 1,21,22
 279 206 279 206 382 476 c 0,23,24
 388 490 388 490 379.5 502 c 128,-1,25
 371 514 371 514 356 514 c 0,26,27
 344 514 344 514 336 506 c 2,28,-1
 27 205 l 1,29,-1
 97 479 l 2,30,31
 101 492 101 492 92.5 503 c 128,-1,32
 84 514 84 514 70 514 c 0,33,34
 60 514 60 514 52.5 508 c 128,-1,35
 45 502 45 502 42 493 c 2,36,-1
 -52 121 l 2,37,38
 -58 100 -58 100 -39 89.5 c 128,-1,39
 -20 79 -20 79 -5 94 c 2,40,-1
 285 377 l 1,0,1
EndSplineSet
EndChar

StartChar: u
Encoding: 117 117 46
Width: 400
GlyphClass: 1
Flags: W
LayerCount: 2
Fore
SplineSet
225 466 m 0,0,1
 263 466 263 466 287 439.5 c 128,-1,2
 311 413 311 413 315 375 c 128,-1,3
 319 337 319 337 309 294 c 0,4,5
 289 226 289 226 248 188 c 0,6,7
 218 161 218 161 182.5 153 c 128,-1,8
 147 145 147 145 121 153.5 c 128,-1,9
 95 162 95 162 83 179 c 0,10,11
 72 197 72 197 51.5 191 c 128,-1,12
 31 185 31 185 31 164 c 0,13,14
 31 156 31 156 36 149 c 0,15,16
 53 122 53 122 85.5 106.5 c 128,-1,17
 118 91 118 91 157.5 93 c 128,-1,18
 197 95 197 95 236 112 c 128,-1,19
 275 129 275 129 310 172.5 c 128,-1,20
 345 216 345 216 363 278 c 0,21,22
 380 344 380 344 369 398 c 128,-1,23
 358 452 358 452 319 487.5 c 128,-1,24
 280 523 280 523 225 523 c 0,25,26
 90 523 90 523 15 374 c 0,27,28
 8 360 8 360 16.5 346.5 c 128,-1,29
 25 333 25 333 41 333 c 0,30,31
 58 333 58 333 66 348 c 0,32,33
 125 466 125 466 225 466 c 0,0,1
EndSplineSet
EndChar

StartChar: v
Encoding: 118 118 47
Width: 400
GlyphClass: 1
Flags: W
LayerCount: 2
Fore
SplineSet
270 514 m 0,0,1
 295 514 295 514 316.5 502.5 c 128,-1,2
 338 491 338 491 348 471 c 0,3,4
 365 439 365 439 360 381 c 0,5,6
 358 365 358 365 355 345.5 c 128,-1,7
 352 326 352 326 348.5 310.5 c 128,-1,8
 345 295 345 295 338.5 270 c 128,-1,9
 332 245 332 245 328.5 232 c 128,-1,10
 325 219 325 219 316.5 189 c 128,-1,11
 308 159 308 159 305 149 c 1,12,13
 311 153 311 153 318 154 c 0,14,15
 320 154 320 154 322 154 c 0,16,17
 336 154 336 154 344 143 c 0,18,19
 350 135 350 135 350 126 c 0,20,21
 350 112 350 112 339 103 c 0,22,23
 261 45 261 45 140 -75 c 1,24,25
 165 -73 165 -73 190 -77 c 0,26,27
 210 -81 210 -81 228 -90.5 c 128,-1,28
 246 -100 246 -100 263 -114 c 128,-1,29
 280 -128 280 -128 287 -132 c 0,30,31
 301 -141 301 -141 311.5 -144 c 128,-1,32
 322 -147 322 -147 341.5 -143.5 c 128,-1,33
 361 -140 361 -140 387 -127 c 0,34,35
 393 -124 393 -124 400 -124 c 0,36,37
 418 -124 418 -124 425 -139 c 0,38,39
 428 -145 428 -145 428 -152 c 0,40,41
 428 -170 428 -170 413 -177 c 0,42,43
 325 -221 325 -221 258 -181 c 0,44,45
 245 -173 245 -173 228.5 -161 c 128,-1,46
 212 -149 212 -149 201 -142 c 128,-1,47
 190 -135 190 -135 180 -133 c 0,48,49
 111 -122 111 -122 51 -167 c 0,50,51
 48 -169 48 -169 48 -169 c 2,52,53
 40 -176 40 -176 29 -176 c 0,54,55
 17 -176 17 -176 9 -168 c 128,-1,56
 1 -160 1 -160 1 -148 c 0,57,58
 1 -137 1 -137 8 -129 c 0,59,60
 121 -7 121 -7 232 89 c 1,61,62
 232 89 232 89 232 90 c 256,63,64
 232 91 232 91 232 92 c 0,65,66
 241 129 241 129 259 194.5 c 128,-1,67
 277 260 277 260 288.5 307 c 128,-1,68
 300 354 300 354 303 387 c 0,69,70
 307 427 307 427 298 445 c 0,71,72
 294 452 294 452 289 455 c 128,-1,73
 284 458 284 458 270 458 c 0,74,75
 213 458 213 458 161 408 c 0,76,77
 130 379 130 379 82 309 c 0,78,79
 74 296 74 296 59 296 c 0,80,81
 50 296 50 296 43 301 c 0,82,83
 30 310 30 310 30 325 c 0,84,85
 30 333 30 333 35 340 c 0,86,87
 86 416 86 416 122 449 c 0,88,89
 191 514 191 514 270 514 c 0,0,1
EndSplineSet
EndChar

StartChar: w
Encoding: 119 119 48
Width: 400
GlyphClass: 1
Flags: W
LayerCount: 2
Fore
SplineSet
177 154 m 0,0,1
 136 154 136 154 112.5 180 c 128,-1,2
 89 206 89 206 88.5 243.5 c 128,-1,3
 88 281 88 281 105 323 c 0,4,5
 137 397 137 397 172 431.5 c 128,-1,6
 207 466 207 466 251 466 c 0,7,8
 294 466 294 466 318 425.5 c 128,-1,9
 342 385 342 385 342 333 c 0,10,11
 342 302 342 302 333 272 c 128,-1,12
 324 242 324 242 305.5 214.5 c 128,-1,13
 287 187 287 187 253.5 170.5 c 128,-1,14
 220 154 220 154 177 154 c 0,0,1
398 333 m 0,15,16
 398 413 398 413 357 468 c 128,-1,17
 316 523 316 523 250 523 c 128,-1,18
 184 523 184 523 137 476.5 c 128,-1,19
 90 430 90 430 53 346 c 0,20,21
 32 300 32 300 31.5 254 c 128,-1,22
 31 208 31 208 48 174 c 128,-1,23
 65 140 65 140 99 118.5 c 128,-1,24
 133 97 133 97 177 97 c 0,25,26
 247 97 247 97 298.5 132 c 128,-1,27
 350 167 350 167 374 219.5 c 128,-1,28
 398 272 398 272 398 333 c 0,15,16
EndSplineSet
EndChar

StartChar: x
Encoding: 120 120 49
Width: 400
GlyphClass: 1
Flags: W
LayerCount: 2
Fore
SplineSet
171 -143 m 0,0,1
 155 -143 155 -143 148 -137 c 128,-1,2
 141 -131 141 -131 141 -114 c 0,3,4
 141 -82 141 -82 169 -29 c 128,-1,5
 197 24 197 24 250 79 c 1,6,7
 247 66 247 66 241 39 c 0,8,9
 217 -71 217 -71 200 -108 c 0,10,11
 184 -143 184 -143 171 -143 c 0,0,1
218 444 m 1,12,13
 216 480 216 480 196 497.5 c 128,-1,14
 176 515 176 515 148 512.5 c 128,-1,15
 120 510 120 510 94 491 c 0,16,17
 66 471 66 471 41 433 c 0,18,19
 10 387 10 387 -9 334 c 0,20,21
 -14 320 -14 320 -5.5 308 c 128,-1,22
 3 296 3 296 18 296 c 0,23,24
 38 296 38 296 45 315 c 0,25,26
 48 325 48 325 55.5 343 c 128,-1,27
 63 361 63 361 84.5 395.5 c 128,-1,28
 106 430 106 430 127 445 c 0,29,30
 146 459 146 459 158 455 c 1,31,32
 167 437 167 437 148 354 c 0,33,34
 137 307 137 307 126.5 251 c 128,-1,35
 116 195 116 195 109 161 c 0,36,37
 99 122 99 122 99 117 c 0,38,39
 99 105 99 105 107.5 97 c 128,-1,40
 116 89 116 89 127 89 c 0,41,42
 148 89 148 89 154 108 c 0,43,44
 159 123 159 123 165 150 c 0,45,46
 207 312 207 312 256 397 c 0,47,48
 277 434 277 434 295 449 c 0,49,50
 310 461 310 461 318 457 c 0,51,52
 329 451 329 451 329 414 c 0,53,54
 329 343 329 343 280 184 c 1,55,56
 253 162 253 162 225 135.5 c 128,-1,57
 197 109 197 109 157 56 c 128,-1,58
 117 3 117 3 98 -47 c 0,59,60
 79 -98 79 -98 85.5 -132 c 128,-1,61
 92 -166 92 -166 114.5 -183 c 128,-1,62
 137 -200 137 -200 171 -200 c 0,63,64
 184 -200 184 -200 196.5 -195.5 c 128,-1,65
 209 -191 209 -191 219 -180.5 c 128,-1,66
 229 -170 229 -170 237 -159.5 c 128,-1,67
 245 -149 245 -149 252.5 -129.5 c 128,-1,68
 260 -110 260 -110 265 -96.5 c 128,-1,69
 270 -83 270 -83 276.5 -57.5 c 128,-1,70
 283 -32 283 -32 286.5 -17 c 128,-1,71
 290 -2 290 -2 296 26 c 0,72,73
 309 84 309 84 315 109 c 0,74,75
 323 131 323 131 329 151 c 1,76,77
 369 182 369 182 413 208 c 0,78,79
 432 218 432 218 426.5 239 c 128,-1,80
 421 260 421 260 399 260 c 0,81,82
 390 260 390 260 355 238 c 1,83,84
 387 352 387 352 385 419.5 c 128,-1,85
 383 487 383 487 344 507 c 0,86,87
 330 514 330 514 312 514 c 0,88,89
 263 514 263 514 218 444 c 1,12,13
EndSplineSet
EndChar

StartChar: y
Encoding: 121 121 50
Width: 400
GlyphClass: 1
Flags: W
LayerCount: 2
Fore
SplineSet
-24 149 m 0,0,1
 -24 118 -24 118 -6.5 102 c 128,-1,2
 11 86 11 86 33 86 c 0,3,4
 76 86 76 86 121.5 142.5 c 128,-1,5
 167 199 167 199 196 301 c 1,6,7
 223 316 223 316 272 340 c 1,8,9
 235 234 235 234 226 181.5 c 128,-1,10
 217 129 217 129 230 111 c 0,11,12
 232 107 232 107 236.5 101.5 c 128,-1,13
 241 96 241 96 252.5 90.5 c 128,-1,14
 264 85 264 85 278.5 86 c 128,-1,15
 293 87 293 87 316 101 c 128,-1,16
 339 115 339 115 366 143 c 0,17,18
 398 175 398 175 423 213 c 0,19,20
 433 227 433 227 425 242 c 128,-1,21
 417 257 417 257 400 257 c 0,22,23
 385 257 385 257 377 245 c 0,24,25
 371 236 371 236 359.5 221 c 128,-1,26
 348 206 348 206 322.5 179.5 c 128,-1,27
 297 153 297 153 279 145 c 1,28,29
 279 196 279 196 348 385 c 0,30,31
 349 386 349 386 349 387 c 0,32,33
 364 427 364 427 382 476 c 0,34,35
 388 490 388 490 379.5 502 c 128,-1,36
 371 514 371 514 356 514 c 0,37,38
 336 514 336 514 329 496 c 0,39,40
 313 453 313 453 300 417 c 1,41,42
 240 387 240 387 213 374 c 1,43,44
 219 406 219 406 219 430 c 128,-1,45
 219 454 219 454 212 471 c 128,-1,46
 205 488 205 488 196 496 c 128,-1,47
 187 504 187 504 173.5 508.5 c 128,-1,48
 160 513 160 513 152.5 513.5 c 128,-1,49
 145 514 145 514 136 514 c 0,50,51
 108 514 108 514 76 498 c 0,52,53
 56 488 56 488 42 476 c 0,54,55
 26 464 26 464 33 445 c 128,-1,56
 40 426 40 426 60 426 c 0,57,58
 70 426 70 426 77 432 c 0,59,60
 88 440 88 440 105.5 449 c 128,-1,61
 123 458 123 458 136 458 c 0,62,63
 152 458 152 458 157 454 c 0,64,65
 162 451 162 451 162 430 c 0,66,67
 162 399 162 399 147 339 c 1,68,69
 93 308 93 308 34 260 c 0,70,71
 7 238 7 238 -8.5 208 c 128,-1,72
 -24 178 -24 178 -24 149 c 0,0,1
33 142 m 1,73,74
 30 155 30 155 40 177.5 c 128,-1,75
 50 200 50 200 70 216 c 0,76,77
 98 239 98 239 120 254 c 1,78,79
 84 170 84 170 43 146 c 0,80,81
 38 143 38 143 33 142 c 1,73,74
EndSplineSet
EndChar

StartChar: z
Encoding: 122 122 51
Width: 400
GlyphClass: 1
Flags: W
LayerCount: 2
Fore
SplineSet
285 377 m 1,0,1
 253 289 253 289 238 235 c 128,-1,2
 223 181 223 181 222.5 154 c 128,-1,3
 222 127 222 127 230 111 c 0,4,5
 232 107 232 107 236.5 101.5 c 128,-1,6
 241 96 241 96 252.5 90.5 c 128,-1,7
 264 85 264 85 278.5 86 c 128,-1,8
 293 87 293 87 316 101 c 128,-1,9
 339 115 339 115 366 143 c 0,10,11
 398 175 398 175 423 213 c 0,12,13
 433 227 433 227 425 242 c 128,-1,14
 417 257 417 257 400 257 c 0,15,16
 385 257 385 257 377 245 c 0,17,18
 371 236 371 236 359.5 221 c 128,-1,19
 348 206 348 206 322.5 179.5 c 128,-1,20
 297 153 297 153 279 145 c 1,21,22
 279 206 279 206 382 476 c 0,23,24
 388 490 388 490 379.5 502 c 128,-1,25
 371 514 371 514 356 514 c 0,26,27
 344 514 344 514 336 506 c 2,28,-1
 27 205 l 1,29,-1
 97 479 l 2,30,31
 101 492 101 492 92.5 503 c 128,-1,32
 84 514 84 514 70 514 c 0,33,34
 60 514 60 514 52.5 508 c 128,-1,35
 45 502 45 502 42 493 c 2,36,-1
 -52 121 l 2,37,38
 -58 100 -58 100 -39 89.5 c 128,-1,39
 -20 79 -20 79 -5 94 c 2,40,-1
 285 377 l 1,0,1
106 -9 m 0,41,42
 95 -9 95 -9 85.5 -5.5 c 128,-1,43
 76 -2 76 -2 71 3 c 128,-1,44
 66 8 66 8 62 14 c 128,-1,45
 58 20 58 20 57 23 c 128,-1,46
 56 26 56 26 56 28 c 0,47,48
 54 37 54 37 46 43.5 c 128,-1,49
 38 50 38 50 28 50 c 0,50,51
 17 50 17 50 8.5 41.5 c 128,-1,52
 0 33 0 33 0 21 c 0,53,54
 0 14 0 14 6 0.5 c 128,-1,55
 12 -13 12 -13 23.5 -28.5 c 128,-1,56
 35 -44 35 -44 57 -55 c 128,-1,57
 79 -66 79 -66 106 -66 c 0,58,59
 184 -66 184 -66 248 -2 c 0,60,61
 262 12 262 12 254.5 29.5 c 128,-1,62
 247 47 247 47 228 47 c 0,63,64
 217 47 217 47 208 39 c 0,65,66
 161 -9 161 -9 106 -9 c 0,41,42
EndSplineSet
EndChar

StartChar: braceleft
Encoding: 123 123 52
Width: 200
GlyphClass: 1
Flags: W
LayerCount: 2
Fore
SplineSet
-93 -142 m 1,0,1
 -102 -142 -102 -142 -108 -146 c 1,2,3
 -101 -142 -101 -142 -93 -142 c 1,0,1
107 341 m 0,4,5
 89 341 89 341 73.5 328.5 c 128,-1,6
 58 316 58 316 53.5 297.5 c 128,-1,7
 49 279 49 279 58 266.5 c 128,-1,8
 67 254 67 254 85 254 c 0,9,10
 101 254 101 254 115 269.5 c 128,-1,11
 129 285 129 285 134 305 c 0,12,13
 143 341 143 341 107 341 c 0,4,5
128 752 m 1,14,15
 137 743 137 743 148 744 c 1,16,17
 136 744 136 744 128 752 c 1,14,15
147 800 m 1,18,19
 147 800 147 800 305 800 c 0,20,21
 319 800 319 800 328 788 c 0,22,23
 333 781 333 781 333 772 c 0,24,25
 334 757 334 757 322 749 c 0,26,27
 315 743 315 743 306 743 c 2,28,-1
 177 743 l 1,29,-1
 194 312 l 2,30,31
 195 304 195 304 195 298 c 0,32,33
 196 289 196 289 186 274 c 2,34,-1
 -43 -141 l 1,35,36
 66 -141 66 -141 66 -141 c 2,37,38
 80 -141 80 -141 89 -153 c 0,39,40
 94 -160 94 -160 94 -170 c 0,41,42
 94 -184 94 -184 83 -192 c 0,43,44
 76 -198 76 -198 66 -198 c 2,45,-1
 -91 -198 l 1,46,-1
 -89 -197 l 1,47,48
 -91 -198 -91 -198 -92 -197 c 0,49,50
 -106 -197 -106 -197 -114 -186 c 0,51,52
 -123 -174 -123 -174 -118 -159 c 0,53,54
 -117 -157 -117 -157 -116 -155 c 2,55,-1
 80 199 l 1,56,57
 75 198 75 198 70 198 c 0,58,59
 29 198 29 198 7.5 227.5 c 128,-1,60
 -14 257 -14 257 -4 297.5 c 128,-1,61
 6 338 6 338 43 367.5 c 128,-1,62
 80 397 80 397 121 397 c 0,63,64
 128 397 128 397 134 396 c 1,65,66
 134 396 134 396 120 771 c 0,67,68
 119 777 119 777 121 782 c 0,69,70
 124 789 124 789 131 794 c 0,71,72
 138 800 138 800 146 800 c 0,73,74
 147 800 147 800 147.5 800 c 128,-1,75
 148 800 148 800 148 800 c 1,76,-1
 147 800 l 1,18,19
EndSplineSet
EndChar

StartChar: braceright
Encoding: 125 125 53
Width: 200
GlyphClass: 1
Flags: W
LayerCount: 2
Fore
SplineSet
299 744 m 1,0,1
 307 744 307 744 313 748 c 1,2,3
 306 744 306 744 299 744 c 1,0,1
99 261 m 0,4,5
 116 261 116 261 131.5 273.5 c 128,-1,6
 147 286 147 286 152 304.5 c 128,-1,7
 157 323 157 323 147.5 335.5 c 128,-1,8
 138 348 138 348 121 348 c 256,9,10
 104 348 104 348 90 332.5 c 128,-1,11
 76 317 76 317 71 297 c 0,12,13
 62 261 62 261 99 261 c 0,4,5
77 -150 m 1,14,15
 68 -141 68 -141 58 -141 c 1,16,17
 69 -142 69 -142 77 -150 c 1,14,15
58 -198 m 1,18,19
 58 -198 58 -198 -99 -198 c 0,20,21
 -114 -198 -114 -198 -122 -186 c 0,22,23
 -128 -179 -128 -179 -128 -170 c 0,24,25
 -128 -155 -128 -155 -117 -147 c 0,26,27
 -110 -141 -110 -141 -100 -141 c 2,28,-1
 28 -141 l 1,29,-1
 11 290 l 2,30,31
 10 298 10 298 10 304 c 0,32,33
 10 313 10 313 19 328 c 2,34,-1
 249 743 l 1,35,36
 140 743 140 743 140 743 c 2,37,38
 125 743 125 743 117 755 c 0,39,40
 111 762 111 762 111 772 c 0,41,42
 111 786 111 786 122 795 c 0,43,44
 130 800 130 800 139 800 c 2,45,-1
 296 800 l 1,46,-1
 295 800 l 1,47,48
 296 800 296 800 297 800 c 0,49,50
 311 799 311 799 319 788 c 0,51,52
 328 776 328 776 323 761 c 0,53,54
 323 759 323 759 322 758 c 2,55,-1
 126 403 l 1,56,57
 131 404 131 404 135 404 c 0,58,59
 176 404 176 404 198 374.5 c 128,-1,60
 220 345 220 345 209.5 304.5 c 128,-1,61
 199 264 199 264 162.5 234.5 c 128,-1,62
 126 205 126 205 84 205 c 0,63,64
 77 205 77 205 71 206 c 1,65,66
 71 206 71 206 86 -169 c 0,67,68
 86 -174 86 -174 84 -180 c 0,69,70
 81 -187 81 -187 75 -192 c 0,71,72
 68 -197 68 -197 59 -198 c 2,73,74
 59 -198 59 -198 58.5 -198 c 128,-1,75
 58 -198 58 -198 57 -198 c 1,76,-1
 58 -198 l 1,18,19
EndSplineSet
EndChar

StartChar: uni216D
Encoding: 8557 8557 54
Width: 600
GlyphClass: 2
Flags: W
LayerCount: 2
Fore
SplineSet
381 797 m 0,0,1
 385 797 385 797 390 796 c 0,2,3
 399 794 399 794 405 786 c 0,4,5
 413 775 413 775 410 761 c 2,6,-1
 388 673 l 1,7,8
 544 673 544 673 544 673 c 2,9,10
 559 673 559 673 567 661 c 0,11,12
 573 654 573 654 573 645 c 0,13,14
 573 630 573 630 562 622 c 0,15,16
 554 616 554 616 545 616 c 2,17,-1
 373 616 l 1,18,-1
 335 465 l 1,19,20
 542 465 542 465 542 465 c 2,21,22
 556 465 556 465 565 454 c 0,23,24
 571 446 571 446 571 437 c 0,25,26
 571 423 571 423 560 414 c 0,27,28
 552 409 552 409 543 409 c 0,29,30
 55 409 55 409 55 409 c 2,31,32
 41 409 41 409 32 420 c 0,33,34
 26 428 26 428 26 437 c 0,35,36
 26 451 26 451 37 460 c 0,37,38
 45 465 45 465 54 465 c 2,39,-1
 276 465 l 1,40,-1
 315 616 l 1,41,42
 158 616 158 616 158 616 c 2,43,44
 144 616 144 616 135 628 c 0,45,46
 130 635 130 635 129 645 c 0,47,48
 129 659 129 659 141 668 c 0,49,50
 148 673 148 673 157 673 c 2,51,-1
 329 673 l 1,52,53
 331 680 331 680 333.5 690.5 c 128,-1,54
 336 701 336 701 342 723.5 c 128,-1,55
 348 746 348 746 351.5 761 c 128,-1,56
 355 776 355 776 355 776 c 2,57,58
 358 786 358 786 366 792 c 0,59,60
 373 797 373 797 381 797 c 0,0,1
63 324 m 0,61,62
 460 324 460 324 460 324 c 2,63,64
 474 324 474 324 483 312 c 0,65,66
 497 293 497 293 482 276 c 2,67,-1
 197 -40 l 1,68,69
 200 -47 200 -47 205.5 -59.5 c 128,-1,70
 211 -72 211 -72 223.5 -97.5 c 128,-1,71
 236 -123 236 -123 244 -140 c 128,-1,72
 252 -157 252 -157 252 -157 c 2,73,74
 261 -178 261 -178 243 -192 c 0,75,76
 241 -193 241 -193 238 -195 c 0,77,78
 217 -204 217 -204 204 -186 c 0,79,80
 202 -183 202 -183 201 -181 c 0,81,82
 193 -164 193 -164 180 -136 c 128,-1,83
 167 -108 167 -108 139.5 -49.5 c 128,-1,84
 112 9 112 9 93.5 48 c 128,-1,85
 75 87 75 87 75 87 c 2,86,87
 65 108 65 108 83 122 c 0,88,89
 86 124 86 124 88 125 c 0,90,91
 99 130 99 130 110 126 c 0,92,93
 118 123 118 123 123 116 c 0,94,95
 125 113 125 113 126 111 c 2,96,-1
 170 16 l 1,97,-1
 397 267 l 1,98,99
 64 267 64 267 64 267 c 2,100,101
 49 267 49 267 41 279 c 0,102,103
 35 286 35 286 35 295 c 0,104,105
 35 310 35 310 46 318 c 0,106,107
 54 324 54 324 63 324 c 0,61,62
EndSplineSet
EndChar
